<svg viewBox="0 0 1310 1310" xmlns="http://www.w3.org/2000/svg" xml:space="preserve" style="fill-rule:evenodd;clip-rule:evenodd"><path d="M1300.78 654.64v.26c0 354.4-291.66 646.04-646.1 646.04-354.43 0-646.08-291.63-646.08-646.04v-.26C8.6 300.24 300.25 8.6 654.69 8.6c354.43 0 646.09 291.63 646.09 646.04Z" style="fill:url(#a);stroke:#000;stroke-width:4.17px"/><path d="M655.04 145.78c-280.78 0-508.66 228.29-508.66 509.58 0 25.11-3.84 1.78-.34 25.92l38.75 61.42 11.3-.78 5.47-7.92 4.1-52.72 35.38-26.87 23.88-1.92 25.79-44.13 35.37-23.04 29.63 17.25 39.25 34.58 7.36 14.22 3.3 14.21 2.55 23.37 3.85 12.32 6.56 6.89 8.13-2.81 5.42-8.24-.12-23.42-5.55-12.58 2-6.6 5.94-.25 13.25 7.66 4.77-6.4-.33-14.54-.34-7.76-13.57-2.58-1.06-3.88-30.91-9.31-24.08-23.21-.67-23.21 1.2-15.54 31.92-23.21 30-.17 45.38 28.63-5.03 9.3.4 3.87 23.92 9.16 22.54 22.67 15.75 20 22.54 6.42 6.25 9.12-11.37 10.5-1.75 20.83 21.3 5.88 25.37 9.96 6.41-6.34.92-22.58-4.46-10.42-4.5-6.33-.37-4.96 8 3.17 6.7 5.83 12.09-.91-1.46-10.42-16.42-26.75-.08-25.33 13.46-3.67 21.5 25.33 35.12-11.29 7.96-12.67-4.25-9.95-1.56-18.13 3.9-11.3 13.37-8.62 44.62-10.87 41.88-2.8 29.67 6.76 14.75-6.88 18.79-23.12 29.66-47.54 25.59-21.8L922 400.74l16.3-7.13L957.24 377l19-8.5 23.8-16.5 15.87-14.71 20-19.42c-93.22-105.48-229.3-172.08-380.88-172.08Zm391.92 184.3-19.67 18.28-19.91 18.92-13.25 6.04-18.67 10.17-10.5 11.46-18.79 25.7-9.28 5.33-17.43 17.56-7.93 10.76-20.14 17.56-17.43 21.62-7.93 17.55-15.92 11.2-7.78 9.82-3.7 12.54 1.72 20.69-2.35 13.9-7.77 13.9-14.57 12.54-16.92 2.59-29.13 6.66-15.57 3.94-29.13-1.49-7.42-2.84-10.13-9.63-3.35-.13-7.62 4.38-14.41 5.74-15.77 5.73-4.96 16.7.47 14 4.54 8.55 12.67 10.97 18.1 6.89 18.1 2.81 5.89 11.23-4.98 13.94-10.4 11.22-16.18 7.55-10.74 7.56 1.47 12.99.11 25.2 5.81 11.35-.98 20.85 7.17 19.5 4.45 5.92-.98 14.07 3.09 19.5 8.52 19.49 2.42 30.09-.29 28.73 1.07 15.16 9.2 26.02 6.5 30.1 5.14 30.08 10.56 30.1-1.09 21.43 2.98 14.64 11.13 14.65 4.33 32.3c230.8-48.26 404.38-253.32 404.38-498.8 0-118.65-39.29-226.44-116.75-325.29ZM221.5 794.52l-12.62 1.92-4.92 21.12-20.17 28.8c93.46 204.51 242.96 303.22 471.25 318.58 29.19 0 57.74-2.6 85.59-7.34l-.3-26.81-11.7-19.52-3.54-14.08 1.05-28.18-4.37-28.17-13.88-13.24-.3-29.53-3.02-26.82-9.8-22.74-1.08-31.3.28-31.3-3.8-15.02-5.14-10.94-11.94-24.52-2.43-36.73-3.79-32.65-7.71-18.37-14.5-7.5-24-3.43-19.93 2-17.29 5.27-15.93 1.2-15.92-9.66-24.35 4.8-2.64 4.81 1.44 22.45 6.87 6.16-1.27 4.8-17.57 4.8-17.56-3.33-14.28-11.79-11.56-6.35-8.85 1.79-17 11.29-22.41 12.64-27.86 3.15-23.77 8.57-17.86.73-17.86 3.45-13.8-4.7-24.64-1.98-7-4.7-7 7.52-16.5 2.08-9.33 3.73-15.04-3.3-20.25-7.66Z" style="fill:#fff;stroke:#000;stroke-width:4.19px"/><path d="M65.4 780.86c-.02 5.72 2.1 10.28 6.37 13.66 4.27 3.38 10.09 5.08 17.46 5.09 7.34.01 13.15-1.66 17.43-5.03 4.27-3.36 6.42-7.9 6.43-13.64 0-5.73-2.12-10.27-6.38-13.62-4.27-3.36-10.07-5.04-17.42-5.05-7.37-.02-13.19 1.64-17.47 4.98-4.27 3.34-6.42 7.88-6.43 13.6Zm-6.41-.02c.01-8.17 2.76-14.7 8.25-19.6 5.5-4.88 12.85-7.31 22.07-7.3 9.2.02 16.52 2.48 22 7.39 5.47 4.9 8.2 11.45 8.18 19.62-.01 8.2-2.76 14.76-8.24 19.66-5.47 4.9-12.82 7.34-22.04 7.32-9.22-.02-16.57-2.48-22.04-7.4-5.47-4.92-8.2-11.48-8.18-19.69ZM64.68 697.88l8.32.02a27.93 27.93 0 0 0-5.56 8.49 25.2 25.2 0 0 0-1.85 9.58c-.01 6.67 2.01 11.78 6.08 15.33 4.07 3.54 9.96 5.33 17.67 5.34 7.68.01 13.56-1.75 17.65-5.28 4.08-3.53 6.12-8.63 6.14-15.3 0-3.39-.6-6.58-1.82-9.6a27.9 27.9 0 0 0-5.53-8.5l8.24.01a32.21 32.21 0 0 1 5.6 18.57c-.03 8.83-2.74 15.78-8.15 20.85-5.42 5.06-12.8 7.59-22.15 7.57-9.37-.02-16.76-2.57-22.15-7.66-5.4-5.08-8.08-12.04-8.07-20.87.01-3.49.48-6.78 1.4-9.86a31.23 31.23 0 0 1 4.18-8.68ZM60.21 685.69l.07-36.88 6.64.02-.05 28.98 17.26.03.05-27.77 6.65.01-.06 27.77 21.14.04.05-29.68h6.64l-.07 37.59-58.32-.11ZM68.11 615.66l29 10.76.05-21.45-29.04 10.7Zm-7.78 4.44.02-8.94 58.36-22.12-.01 8.2-14.98 5.29-.04 26.29 14.95 5.33-.02 8.33-58.28-22.38ZM60.4 580.42l.03-10.63 48.83-25.77-48.79-.09.02-7.65 58.32.1-.02 10.63-48.84 25.77 48.79.09-.01 7.65-58.32-.1ZM1239.81 551.35c.01-5.73-2.12-10.28-6.38-13.66-4.27-3.38-10.08-5.08-17.45-5.1-7.35 0-13.16 1.67-17.43 5.03-4.28 3.37-6.43 7.92-6.44 13.65 0 5.72 2.12 10.27 6.39 13.62 4.26 3.35 10.06 5.04 17.4 5.05 7.38.02 13.2-1.65 17.48-4.99 4.28-3.33 6.42-7.87 6.43-13.6Zm6.4.01c0 8.18-2.76 14.71-8.25 19.6-5.5 4.88-12.85 7.32-22.07 7.3-9.19-.01-16.52-2.48-22-7.38-5.47-4.9-8.2-11.45-8.18-19.63.01-8.2 2.76-14.75 8.24-19.65 5.47-4.9 12.82-7.34 22.04-7.32 9.22.01 16.57 2.48 22.04 7.4 5.47 4.92 8.2 11.48 8.19 19.68ZM1240.52 634.32l-8.32-.01a27.92 27.92 0 0 0 5.56-8.49c1.23-3 1.85-6.2 1.86-9.58 0-6.67-2.02-11.78-6.09-15.33-4.07-3.55-9.96-5.33-17.67-5.34-7.68-.02-13.56 1.74-17.64 5.28-4.08 3.53-6.13 8.63-6.14 15.3-.01 3.38.6 6.58 1.82 9.6a27.9 27.9 0 0 0 5.53 8.5l-8.25-.02a32.2 32.2 0 0 1-5.59-18.56c.02-8.83 2.73-15.78 8.15-20.85 5.4-5.06 12.79-7.59 22.14-7.57 9.37.01 16.76 2.57 22.15 7.65 5.4 5.1 8.09 12.05 8.07 20.88 0 3.49-.47 6.77-1.4 9.86a31.22 31.22 0 0 1-4.18 8.68ZM1244.99 646.52l-.07 36.87h-6.64l.05-29-17.26-.02-.05 27.77-6.64-.01.05-27.78-21.13-.03-.06 29.68h-6.64l.07-37.59 58.32.1ZM1237.09 716.54l-29-10.75-.04 21.44 29.04-10.69Zm7.78-4.43-.01 8.94-58.37 22.12.02-8.2 14.97-5.29.05-26.29-14.95-5.34.01-8.32 58.28 22.38ZM1244.8 751.8l-.02 10.62-48.84 25.77 48.8.09-.02 7.65-58.32-.1.02-10.63 48.84-25.77-48.8-.09.02-7.65 58.32.1Z" style="fill-rule:nonzero"/><g><path d="M429.47 370.49h34.42v6.2h-27.05v16.1h25.92v6.2h-25.92v19.73h27.7v6.2h-35.07v-54.43ZM475.81 370.49h7.4v33.06c0 5.84 1.06 10.04 3.18 12.6 2.11 2.56 5.54 3.85 10.28 3.85 4.71 0 8.13-1.29 10.24-3.85 2.12-2.56 3.17-6.76 3.17-12.6V370.5h7.4v33.97c0 7.1-1.75 12.46-5.26 16.08-3.52 3.62-8.7 5.44-15.55 5.44-6.88 0-12.08-1.82-15.59-5.44s-5.27-8.98-5.27-16.08V370.5ZM557.12 399.4c1.58.53 3.11 1.68 4.6 3.43 1.5 1.75 3 4.15 4.51 7.21l7.47 14.88h-7.9l-6.97-13.96c-1.8-3.65-3.54-6.07-5.23-7.26-1.7-1.2-4-1.79-6.91-1.79h-8.02v23h-7.37V370.5h16.63c6.22 0 10.86 1.3 13.93 3.9 3.06 2.6 4.59 6.52 4.59 11.77 0 3.43-.8 6.27-2.39 8.54a12.33 12.33 0 0 1-6.94 4.7Zm-18.45-22.86v19.32h9.26c3.55 0 6.23-.82 8.04-2.46 1.8-1.64 2.71-4.05 2.71-7.24 0-3.18-.9-5.58-2.71-7.2-1.81-1.61-4.5-2.42-8.04-2.42h-9.26ZM605.28 375.48c-5.35 0-9.6 2-12.75 5.98-3.14 3.99-4.72 9.42-4.72 16.3 0 6.85 1.58 12.27 4.72 16.26 3.15 3.98 7.4 5.98 12.75 5.98 5.34 0 9.58-2 12.7-5.98 3.12-3.99 4.69-9.4 4.69-16.26 0-6.88-1.57-12.31-4.69-16.3s-7.36-5.98-12.7-5.98Zm0-5.98c7.63 0 13.73 2.56 18.3 7.68 4.57 5.11 6.85 11.97 6.85 20.58 0 8.58-2.28 15.43-6.85 20.54-4.57 5.12-10.67 7.68-18.3 7.68-7.66 0-13.78-2.56-18.36-7.66s-6.87-11.96-6.87-20.56c0-8.6 2.29-15.47 6.87-20.58 4.58-5.12 10.7-7.68 18.36-7.68ZM649.32 376.54v20.45h9.26c3.43 0 6.07-.89 7.95-2.66 1.87-1.77 2.8-4.3 2.8-7.58 0-3.26-.93-5.78-2.8-7.55-1.88-1.77-4.52-2.66-7.95-2.66h-9.26Zm-7.37-6.05h16.63c6.1 0 10.71 1.38 13.83 4.13 3.13 2.76 4.69 6.8 4.69 12.13 0 5.37-1.56 9.43-4.69 12.17-3.12 2.75-7.73 4.12-13.83 4.12h-9.26v21.88h-7.37v-54.43ZM686.98 370.49h34.42v6.2h-27.06v16.1h25.93v6.2h-25.93v19.73h27.71v6.2h-35.07v-54.43Z" style="fill-rule:nonzero"/></g><g><path d="M389.77 935.13h7.37v48.24h26.5v6.2h-33.87v-54.44ZM431.37 935.13h7.37v54.43h-7.37zM460.76 963.57v19.94h11.81c3.96 0 6.9-.82 8.8-2.46 1.91-1.64 2.87-4.15 2.87-7.53 0-3.4-.96-5.91-2.87-7.53-1.9-1.61-4.84-2.42-8.8-2.42h-11.81Zm0-22.39v16.41h10.9c3.6 0 6.28-.67 8.04-2.02 1.76-1.35 2.64-3.41 2.64-6.18 0-2.75-.88-4.8-2.64-6.17-1.76-1.36-4.44-2.04-8.04-2.04h-10.9Zm-7.37-6.05h18.82c5.61 0 9.94 1.17 12.98 3.5 3.03 2.33 4.55 5.65 4.55 9.95 0 3.33-.78 5.98-2.33 7.95-1.56 1.97-3.84 3.2-6.86 3.68 3.63.78 6.44 2.4 8.44 4.87 2.01 2.47 3.01 5.55 3.01 9.24 0 4.86-1.65 8.62-4.96 11.27-3.3 2.65-8 3.97-14.1 3.97h-19.55v-54.43ZM493.06 935.13h7.91l15.1 22.39 14.98-22.39h7.91l-19.25 28.51v25.92h-7.4v-25.92l-19.25-28.5ZM558.54 942.39l-9.99 27.08h20.02l-10.03-27.08Zm-4.16-7.26h8.35l20.75 54.43h-7.66l-4.96-13.96h-24.53l-4.96 13.96h-7.77l20.78-54.43Z" style="fill-rule:nonzero"/></g><g><path d="m849.46 752.41-10 27.09h20.02l-10.03-27.09Zm-4.16-7.25h8.35l20.74 54.43h-7.65l-4.96-13.97h-24.54l-4.96 13.97h-7.76l20.78-54.44ZM914.97 746.94v7.18a45.38 45.38 0 0 0-7.91-2.99 28.04 28.04 0 0 0-7.18-.98c-4.01 0-7.1.78-9.28 2.33-2.18 1.56-3.26 3.77-3.26 6.64 0 2.4.72 4.22 2.16 5.45 1.45 1.23 4.2 2.22 8.23 2.97l4.44.91c5.5 1.05 9.55 2.89 12.16 5.52 2.61 2.64 3.92 6.17 3.92 10.6 0 5.27-1.77 9.27-5.3 12-3.54 2.71-8.72 4.07-15.55 4.07-2.58 0-5.32-.29-8.22-.87a61.33 61.33 0 0 1-9.03-2.59v-7.58a42.99 42.99 0 0 0 8.79 3.79c2.87.85 5.69 1.28 8.46 1.28 4.2 0 7.45-.83 9.73-2.48 2.29-1.66 3.43-4.01 3.43-7.08 0-2.67-.82-4.76-2.46-6.27-1.64-1.5-4.33-2.64-8.08-3.39l-4.48-.87c-5.5-1.1-9.47-2.81-11.92-5.14-2.46-2.34-3.69-5.58-3.69-9.74 0-4.81 1.7-8.6 5.09-11.37 3.4-2.77 8.06-4.16 14.02-4.16 2.55 0 5.15.23 7.8.7 2.65.46 5.36 1.15 8.13 2.07ZM929.74 745.15h7.37v54.43h-7.37zM969.95 752.41l-9.99 27.09h20.02l-10.03-27.09Zm-4.16-7.25h8.35l20.75 54.43h-7.66l-4.96-13.97h-24.53l-4.96 13.97H945l20.78-54.44Z" style="fill-rule:nonzero"/></g><g><path d="M250.57 714.55h4.7l5.96 15.88 5.98-15.88h4.7v23.33h-3.07v-20.49l-6.02 16h-3.17l-6.02-16v20.49h-3.06v-23.33ZM278.18 714.55h14.75v2.66h-11.6v6.9h11.12v2.66h-11.11v8.45h11.87v2.66h-15.03v-23.33ZM301.56 717.14v18.14h3.8c3.23 0 5.59-.72 7.08-2.18 1.5-1.46 2.24-3.76 2.24-6.91 0-3.13-.74-5.41-2.24-6.87-1.5-1.45-3.85-2.18-7.07-2.18h-3.81Zm-3.16-2.59h6.49c4.52 0 7.83.94 9.95 2.82 2.11 1.88 3.17 4.82 3.17 8.82 0 4.02-1.06 6.97-3.19 8.86-2.12 1.89-5.44 2.83-9.94 2.83h-6.48v-23.33ZM323.04 714.55h3.16v23.33h-3.16zM329.24 714.55h19.74v2.66h-8.28v20.67h-3.17V717.2h-8.29v-2.66ZM352.03 714.55h14.75v2.66h-11.6v6.9h11.11v2.66h-11.1v8.45h11.87v2.66h-15.03v-23.33ZM383.3 726.94c.68.23 1.34.72 1.98 1.47.64.75 1.29 1.78 1.93 3.1l3.2 6.37h-3.38l-2.99-5.99c-.77-1.56-1.52-2.6-2.24-3.1a5.06 5.06 0 0 0-2.96-.77h-3.44v9.86h-3.16v-23.33h7.13c2.67 0 4.66.56 5.97 1.67 1.31 1.12 1.97 2.8 1.97 5.05a6.2 6.2 0 0 1-1.03 3.66 5.29 5.29 0 0 1-2.97 2.01Zm-7.9-9.8v8.29h3.97c1.52 0 2.67-.36 3.45-1.06.77-.7 1.16-1.74 1.16-3.1 0-1.37-.39-2.4-1.16-3.09-.78-.69-1.93-1.04-3.45-1.04h-3.97ZM405.54 726.94c.68.23 1.34.72 1.98 1.47a15 15 0 0 1 1.93 3.1l3.2 6.37h-3.39l-2.98-5.99c-.78-1.56-1.52-2.6-2.25-3.1a5.06 5.06 0 0 0-2.96-.77h-3.44v9.86h-3.15v-23.33h7.12c2.67 0 4.66.56 5.97 1.67 1.31 1.12 1.97 2.8 1.97 5.05a6.2 6.2 0 0 1-1.02 3.66 5.28 5.28 0 0 1-2.98 2.01Zm-7.9-9.8v8.29h3.96c1.52 0 2.67-.36 3.45-1.06.77-.7 1.16-1.74 1.16-3.1 0-1.37-.39-2.4-1.16-3.09-.78-.69-1.93-1.04-3.45-1.04h-3.97Z" style="fill-rule:nonzero"/><path d="m423.21 717.66-4.28 11.6h8.58l-4.3-11.6Zm-1.78-3.11h3.58l8.9 23.33h-3.3l-2.12-5.99h-10.51l-2.13 5.99h-3.32l8.9-23.33ZM437.3 714.55h4.26l10.34 19.52v-19.52h3.06v23.33h-4.25l-10.34-19.52v19.52h-3.06v-23.33ZM461.24 714.55H476v2.66H464.4v6.9h11.11v2.66h-11.1v8.45h11.87v2.66h-15.04v-23.33ZM489.26 717.66l-4.28 11.6h8.58l-4.3-11.6Zm-1.78-3.11h3.58l8.89 23.33h-3.28l-2.13-5.99h-10.51l-2.13 5.99h-3.33l8.9-23.33ZM503.35 714.55h4.25l10.35 19.52v-19.52H521v23.33h-4.25l-10.34-19.52v19.52h-3.07v-23.33Z" style="fill-rule:nonzero"/></g><g><path d="M720.43 551.89v8.55h5.06c1.7 0 2.96-.36 3.77-1.06.82-.7 1.23-1.78 1.23-3.22 0-1.46-.4-2.54-1.23-3.23-.81-.7-2.07-1.04-3.77-1.04h-5.06Zm0-9.6v7.04h4.67c1.54 0 2.7-.3 3.45-.87.75-.58 1.13-1.46 1.13-2.65 0-1.18-.38-2.06-1.13-2.64-.76-.58-1.9-.87-3.45-.87h-4.67Zm-3.16-2.59h8.07c2.4 0 4.26.5 5.56 1.5 1.3 1 1.95 2.42 1.95 4.27 0 1.42-.33 2.56-1 3.4a4.48 4.48 0 0 1-2.94 1.58 6.15 6.15 0 0 1 3.62 2.09 6.08 6.08 0 0 1 1.29 3.96c0 2.08-.7 3.7-2.13 4.83-1.41 1.13-3.43 1.7-6.04 1.7h-8.38V539.7ZM739.23 539.7h3.15v20.67h11.36v2.66h-14.51V539.7ZM765.59 542.81l-4.29 11.61h8.58l-4.3-11.6Zm-1.79-3.1h3.58l8.9 23.32h-3.29l-2.12-5.98h-10.52l-2.12 5.98h-3.33l8.9-23.33ZM796.59 541.5v3.33a11.16 11.16 0 0 0-3.4-2.22c-1.2-.5-2.49-.74-3.84-.74-2.67 0-4.7.82-6.12 2.45-1.42 1.63-2.13 3.99-2.13 7.07 0 3.07.7 5.42 2.13 7.05 1.41 1.63 3.45 2.45 6.12 2.45 1.35 0 2.63-.24 3.84-.73 1.2-.5 2.33-1.23 3.4-2.22v3.3a12.88 12.88 0 0 1-7.43 2.24c-3.53 0-6.3-1.08-8.34-3.24-2.03-2.16-3.05-5.11-3.05-8.85 0-3.75 1.02-6.7 3.05-8.87 2.03-2.16 4.81-3.24 8.34-3.24 1.4 0 2.72.18 3.95.56 1.23.36 2.4.92 3.48 1.66ZM801.46 539.7h3.16v9.86l10.47-9.86h4.06l-11.58 10.88 12.4 12.45h-4.15l-11.2-11.23v11.23h-3.16V539.7ZM752.63 572.47v3.08c-1.2-.58-2.33-1-3.39-1.29a11.99 11.99 0 0 0-3.08-.42c-1.71 0-3.04.34-3.97 1a3.29 3.29 0 0 0-1.4 2.85c0 1.03.3 1.8.93 2.33.62.53 1.8.95 3.52 1.28l1.9.39c2.36.44 4.1 1.23 5.22 2.36a6.16 6.16 0 0 1 1.68 4.54c0 2.26-.76 3.98-2.28 5.14-1.51 1.17-3.73 1.75-6.66 1.75-1.1 0-2.28-.12-3.52-.37a26.2 26.2 0 0 1-3.87-1.11v-3.25c1.28.72 2.54 1.26 3.77 1.62 1.22.37 2.43.55 3.62.55 1.8 0 3.2-.35 4.17-1.06a3.52 3.52 0 0 0 1.47-3.03c0-1.15-.35-2.05-1.05-2.69-.7-.65-1.86-1.13-3.46-1.45l-1.93-.38c-2.35-.47-4.05-1.2-5.1-2.2a5.48 5.48 0 0 1-1.58-4.17c0-2.07.72-3.7 2.18-4.88 1.45-1.19 3.45-1.78 6-1.78 1.1 0 2.21.1 3.35.3 1.13.2 2.3.5 3.48.89ZM758.96 571.7h14.75v2.66h-11.6v6.9h11.12v2.66h-11.11v8.45h11.87v2.66h-15.03V571.7ZM786.98 574.81l-4.29 11.61h8.58l-4.3-11.6Zm-1.79-3.1h3.58l8.9 23.32h-3.29l-2.12-5.98h-10.52l-2.12 5.98h-3.33l8.9-23.33Z" style="fill-rule:nonzero"/></g><g><path d="m744.56 873.73.75 4.18-17.37 13.64 19.2-3.46.55 3.02-22.96 4.13-.75-4.18 17.37-13.64-19.2 3.46-.55-3.01 22.96-4.14ZM748.8 897.29l.56 3.1-22.96 4.14-.56-3.1 22.96-4.14ZM750.48 906.58l.55 3.1-20.34 3.67 2.01 11.18-2.6.47-2.58-14.29 22.96-4.13ZM753.64 924.12l2.61 14.52-2.61.47-2.06-11.41-6.8 1.22 1.97 10.94-2.6.47-1.98-10.93-8.32 1.5 2.1 11.68-2.6.47-2.67-14.8 22.96-4.13ZM748.8 967.12c-.11.7-.48 1.44-1.1 2.2-.63.76-1.53 1.58-2.7 2.45l-5.71 4.28-.6-3.33 5.36-4c1.4-1.04 2.29-1.96 2.66-2.76.37-.8.45-1.82.23-3.05l-.61-3.38-9.7 1.74-.56-3.1 22.95-4.14 1.27 7.01c.47 2.63.28 4.69-.59 6.17-.86 1.5-2.4 2.44-4.62 2.84a6.2 6.2 0 0 1-3.78-.36 5.28 5.28 0 0 1-2.5-2.57Zm8.23-9.52-8.15 1.47.7 3.9c.27 1.5.82 2.57 1.65 3.2.83.64 1.92.84 3.26.6 1.35-.24 2.29-.8 2.83-1.7.55-.88.69-2.07.42-3.57l-.7-3.9ZM762.97 975.91l.56 3.11-22.96 4.14-.56-3.11 22.96-4.14ZM742.75 995.26l21.38-12.9.58 3.24-18.02 10.76 20.65 3.8.58 3.23-24.54-4.61-.63-3.52ZM768.52 1006.75l2.62 14.52-2.62.47-2.05-11.41-6.8 1.22 1.97 10.94-2.62.47-1.97-10.94-8.31 1.5 2.1 11.69-2.61.47-2.67-14.8 22.96-4.13ZM761.87 1039.73c-.1.7-.47 1.44-1.1 2.2a15 15 0 0 1-2.7 2.45l-5.7 4.29-.6-3.34 5.36-4c1.4-1.04 2.29-1.95 2.66-2.76.37-.8.45-1.82.23-3.05l-.61-3.38-9.7 1.75-.56-3.1 22.96-4.14 1.26 7c.47 2.63.28 4.69-.59 6.18-.86 1.49-2.4 2.43-4.62 2.83a6.2 6.2 0 0 1-3.78-.36 5.28 5.28 0 0 1-2.5-2.57Zm8.24-9.52-8.15 1.47.7 3.9c.27 1.5.82 2.57 1.65 3.21.83.64 1.92.84 3.26.6 1.35-.25 2.29-.81 2.83-1.7.55-.88.69-2.08.42-3.57l-.7-3.9Z" style="fill-rule:nonzero"/></g><g><path d="m815.48 469.2 6.42 5.97 2.7-2.91c1-1.07 1.5-2.16 1.48-3.27 0-1.1-.53-2.14-1.56-3.1-1.02-.95-2.08-1.39-3.19-1.32-1.1.07-2.15.65-3.15 1.72l-2.7 2.9Zm-4.05.54 4.85-5.21c1.78-1.92 3.56-2.96 5.34-3.14 1.77-.17 3.5.51 5.17 2.07 1.68 1.57 2.5 3.24 2.45 5.02-.05 1.78-.96 3.63-2.74 5.55l-2.7 2.9 6.86 6.39-2.15 2.3-17.08-15.88ZM824.57 455.61l2.15-2.31 7 6.51 7.81-8.4-7-6.5 2.15-2.32 17.08 15.89-2.15 2.3-8.13-7.56-7.81 8.4 8.13 7.57-2.15 2.3-17.08-15.88ZM848.54 434.4l5.59 11.04 5.84-6.28-11.43-4.76Zm-3.49-.81 2.44-2.62 23.14 9.37-2.24 2.4-5.83-2.51-7.16 7.7 2.94 5.63-2.27 2.43-11.02-22.4ZM865.95 412.24l2.25 2.1a19.41 19.41 0 0 0-3.25 1.6c-.93.6-1.73 1.25-2.4 1.97-1.17 1.26-1.83 2.46-1.98 3.6a3.29 3.29 0 0 0 1.13 2.96c.76.7 1.54 1 2.35.9.8-.09 1.92-.66 3.33-1.7l1.58-1.14c1.93-1.41 3.7-2.15 5.29-2.2a6.17 6.17 0 0 1 4.46 1.86c1.66 1.54 2.4 3.26 2.22 5.17-.18 1.9-1.26 3.93-3.26 6.07-.75.8-1.64 1.58-2.67 2.33a26.24 26.24 0 0 1-3.45 2.07l-2.38-2.21c1.4-.45 2.65-1 3.76-1.65 1.1-.66 2.06-1.42 2.87-2.29 1.22-1.32 1.91-2.57 2.06-3.77a3.52 3.52 0 0 0-1.22-3.14 3.46 3.46 0 0 0-2.69-1.06c-.95.07-2.09.59-3.42 1.54l-1.58 1.16c-1.95 1.4-3.65 2.15-5.1 2.24a5.48 5.48 0 0 1-4.12-1.69 5.96 5.96 0 0 1-2.09-4.91c.12-1.88 1.05-3.75 2.79-5.62a19.5 19.5 0 0 1 2.5-2.24c.91-.7 1.92-1.35 3.02-1.95ZM869.7 407.09l2.14-2.31 17.09 15.88-2.15 2.31-17.08-15.88ZM886.2 390.46l2.26 2.1a19.5 19.5 0 0 0-3.25 1.6c-.93.59-1.73 1.25-2.4 1.97-1.17 1.26-1.83 2.46-1.98 3.6a3.29 3.29 0 0 0 1.13 2.95c.76.7 1.54 1 2.35.91.8-.1 1.91-.66 3.33-1.71l1.58-1.13c1.93-1.42 3.7-2.15 5.28-2.2a6.17 6.17 0 0 1 4.47 1.86c1.66 1.54 2.4 3.26 2.22 5.16-.18 1.9-1.27 3.93-3.26 6.07-.75.81-1.64 1.59-2.67 2.33a26.2 26.2 0 0 1-3.45 2.08l-2.38-2.22c1.4-.45 2.65-1 3.76-1.65 1.1-.65 2.06-1.41 2.86-2.28 1.23-1.32 1.92-2.58 2.07-3.78a3.52 3.52 0 0 0-1.22-3.14 3.47 3.47 0 0 0-2.69-1.06c-.95.08-2.09.6-3.42 1.55l-1.58 1.15c-1.95 1.4-3.65 2.15-5.1 2.24a5.48 5.48 0 0 1-4.12-1.68 5.96 5.96 0 0 1-2.09-4.92c.12-1.87 1.05-3.74 2.79-5.61.74-.8 1.57-1.55 2.5-2.25.91-.7 1.92-1.34 3.02-1.94ZM913.49 378.19a4.64 4.64 0 0 1 2.42-.45c.99.04 2.18.27 3.58.7l6.85 2-2.3 2.47-6.42-1.89c-1.67-.5-2.94-.65-3.8-.47-.87.18-1.73.73-2.58 1.64l-2.34 2.52 7.22 6.72-2.15 2.3-17.09-15.88 4.85-5.22c1.82-1.95 3.58-3.03 5.3-3.23 1.7-.2 3.38.46 5.03 2a6.2 6.2 0 0 1 1.98 3.24 5.28 5.28 0 0 1-.55 3.55Zm-12.56-.88 6.07 5.64 2.7-2.91c1.03-1.11 1.56-2.2 1.57-3.24.02-1.05-.48-2.04-1.48-2.97-1-.92-2.01-1.34-3.05-1.24-1.04.1-2.07.7-3.1 1.81l-2.7 2.9ZM912.02 361.57l2.15-2.31 17.09 15.88-2.15 2.32-17.09-15.89ZM939.63 366.14l-23.15-9.36 2.25-2.42 19.41 7.96-9.34-18.8 2.24-2.4 11.03 22.4-2.44 2.62ZM933.36 338.63l10.04-10.8 1.95 1.8-7.9 8.5 5.06 4.7 7.57-8.14 1.94 1.81-7.56 8.14 6.19 5.76 8.08-8.7 1.95 1.8-10.24 11.02-17.08-15.9ZM963.73 324.16a4.64 4.64 0 0 1 2.43-.45c.98.04 2.17.28 3.58.7l6.85 2-2.31 2.47-6.42-1.89c-1.67-.5-2.94-.65-3.8-.47-.87.18-1.73.73-2.58 1.65l-2.34 2.51 7.22 6.72-2.15 2.3-17.08-15.88 4.85-5.22c1.82-1.95 3.58-3.03 5.29-3.23 1.7-.2 3.39.47 5.04 2a6.2 6.2 0 0 1 1.98 3.24 5.28 5.28 0 0 1-.56 3.55Zm-12.55-.88 6.06 5.64 2.7-2.9c1.04-1.12 1.56-2.2 1.58-3.25.01-1.05-.48-2.04-1.48-2.96-1-.93-2.02-1.35-3.05-1.25-1.04.1-2.08.7-3.11 1.81l-2.7 2.9Z" style="fill-rule:nonzero"/></g><defs><radialGradient id="a" cx="0" cy="0" r="1" gradientUnits="userSpaceOnUse" gradientTransform="matrix(648.116 0 0 648.188 654.69 654.77)"><stop offset="0" style="stop-color:#69c;stop-opacity:1"/><stop offset=".94" style="stop-color:#69c;stop-opacity:1"/><stop offset=".97" style="stop-color:#7ca5ce;stop-opacity:.91"/><stop offset="1" style="stop-color:#92b1d0;stop-opacity:.69"/></radialGradient></defs></svg>