<svg viewBox="0 0 6250 4167" xmlns="http://www.w3.org/2000/svg" fill-rule="nonzero" clip-rule="evenodd" stroke-linejoin="round" stroke-miterlimit="2" aria-labelledby="alt">
<title id="alt">Technology Today: A Paucity of Integrity and Imagination. An apocalypse by Robert Grimm presented at Rebase/SPLASH 2020.</title>
<style>
svg { background-color: #fff }
#bg, #apocalypse, #rebase { fill: #fff }
#technology, #today { fill: #d72827 }
#paucity, #integrity { fill: #ffca00 }
#apocalypse-box, #robert, #grimm { fill: #23242f }
#rebase-box { fill: #9da0a6 }

@media screen and (prefers-color-scheme: dark) {
  svg { background-color: #38383d } /* Appease Google Chrome */
  #bg, #apocalypse, #rebase { fill: #38383d }
  #technology, #today { fill: #923b3a }
  #paucity, #integrity { fill: #e3c863 }
  #apocalypse-box, #robert, #grimm { fill: #6d7278 }
  #rebase-box { fill: #a7aab0 }
}
</style>
<path id="bg" d="M-1 0h6251v4168H-1z"/>
<path id="technology" d="M414.373 1251.063H125.498V265.091H.436V18.598h539V265.09H414.372v985.972zM1067.866 1004.57v246.493h-489.68V18.598h489.68V265.09H868.823v214.8h177.905v235.93H868.823v288.749h199.043zM1111.901 988.724V282.697c0-51.059 10.57-98.597 33.468-140.853 22.898-42.256 56.366-75.708 103.924-102.118C1295.091 13.316 1351.457.99 1420.153.99c65.173 0 119.777 12.325 163.813 36.974 44.036 26.41 77.503 59.863 100.402 102.119 22.899 42.255 33.467 89.793 33.467 140.853v146.135l-251.885 8.803V295.022c0-19.367-3.523-35.213-8.807-44.017-5.285-8.803-15.853-12.324-29.945-12.324-15.853 0-24.66 3.521-29.944 12.324-7.046 8.804-8.807 24.65-8.807 44.017v676.095c0 19.368 1.761 33.453 7.046 42.256 3.522 8.804 14.091 14.086 29.944 14.086s26.421-5.282 31.706-14.086c5.284-8.803 8.807-22.888 8.807-42.256v-135.57l251.885 5.281v147.896c0 49.299-10.568 95.076-33.467 137.332-22.899 44.017-54.605 77.47-98.64 102.119-44.036 24.649-100.402 36.973-165.575 36.973-68.696 0-126.824-12.324-172.621-38.734-45.797-24.65-79.265-58.102-102.163-100.358-22.899-42.256-33.468-88.033-33.468-137.332zM1765.394 18.598h274.784v445.448h77.503V18.598h274.784v1232.465H2117.68v-529.96h-77.503v529.96h-274.784V18.598zM2455.876 1251.063V18.598h253.647l116.255 573.976h1.761c-3.523-33.452-7.046-68.665-8.807-105.64-1.761-36.973-3.523-72.187-3.523-107.4V18.598h246.601v1232.465h-255.408L2691.909 685.89h-1.762c3.523 35.213 7.046 72.187 8.807 107.4 1.762 36.974 3.523 73.948 3.523 109.161v348.612h-246.6zM3436.996 1268.67c-70.458 0-128.585-12.325-176.144-38.735-47.559-24.65-82.787-58.102-105.686-100.358-22.899-42.256-35.229-88.033-35.229-137.332v-714.83c0-51.059 12.33-96.836 35.23-139.092 22.898-40.495 58.126-73.948 105.685-100.358C3308.411 13.315 3366.538.991 3436.996.991c70.457 0 128.584 12.325 176.143 36.974 47.559 26.41 82.788 59.863 105.686 100.358 22.899 42.256 35.229 88.033 35.229 139.092v714.83c0 51.06-12.33 96.837-35.229 137.332-22.898 42.256-58.127 75.709-103.924 100.358-47.56 26.41-105.686 38.735-177.905 38.735zm0-235.93c17.614 0 29.944-5.281 35.228-14.085 5.285-8.803 7.046-22.888 7.046-42.256V293.261c0-19.367-1.761-33.452-7.046-42.256-5.284-8.803-17.614-14.085-35.228-14.085-15.853 0-26.422 5.282-31.706 14.085-7.046 8.804-8.807 22.89-8.807 42.256V976.4c0 19.368 1.761 33.453 8.807 42.256 5.284 8.804 15.853 14.086 31.706 14.086zM4264.87 1004.57v246.493h-452.689V18.598h290.637v985.972h162.052zM4610.111 1268.67c-70.457 0-128.584-12.325-176.143-38.735-47.559-24.65-82.788-58.102-105.686-100.358-22.899-42.256-35.229-88.033-35.229-137.332v-714.83c0-51.059 12.33-96.836 35.229-139.092 22.898-40.495 58.127-73.948 105.686-100.358C4481.527 13.315 4539.654.991 4610.11.991c70.458 0 128.585 12.325 176.144 36.974 47.559 26.41 82.787 59.863 105.686 100.358 22.899 42.256 35.229 88.033 35.229 139.092v714.83c0 51.06-12.33 96.837-35.229 137.332-22.899 42.256-58.127 75.709-103.925 100.358-47.558 26.41-105.686 38.735-177.905 38.735zm0-235.93c17.615 0 29.945-5.281 35.23-14.085 5.283-8.803 7.045-22.888 7.045-42.256V293.261c0-19.367-1.762-33.452-7.046-42.256-5.284-8.803-17.614-14.085-35.229-14.085-15.853 0-26.421 5.282-31.705 14.085-7.046 8.804-8.808 22.89-8.808 42.256V976.4c0 19.368 1.762 33.453 8.808 42.256 5.284 8.804 15.852 14.086 31.705 14.086zM5221.33 1268.67c-45.798 0-86.311-12.325-123.301-38.735-36.99-24.65-65.173-58.102-86.31-100.358-21.138-40.495-31.706-86.272-31.706-137.332V280.937c0-51.06 12.33-98.598 35.228-140.853 22.9-40.496 58.128-73.948 105.687-100.358C5168.486 13.316 5226.614.99 5295.31.99s126.823 12.325 170.859 36.974c44.036 26.41 77.503 59.863 100.402 100.358 21.137 42.256 31.705 88.033 31.705 139.092V395.38l-264.215 7.043V289.74c0-17.607-3.523-31.692-8.807-40.495-5.284-8.804-15.853-12.325-29.944-12.325-15.853 0-24.66 5.282-29.945 14.085-7.046 8.804-8.807 22.89-8.807 40.496v686.66c0 19.366 3.523 31.691 10.569 40.494 5.284 8.804 15.853 14.086 28.183 14.086 15.853 0 28.183-5.282 35.228-14.086 5.285-8.803 8.807-22.888 8.807-42.256l116.255-3.52c0 93.314-19.376 165.502-59.889 216.56-40.513 52.82-98.64 79.23-174.382 79.23zm378.708-17.607h-195.52l-24.66-151.417-40.513-36.974V782.726h-40.513V553.84h301.206v697.223zM5786.75 1251.063v-345.09L5592.992 18.598h288.875l35.23 274.663c5.283 29.932 8.806 61.624 12.33 93.316 1.76 33.452 3.522 65.144 5.284 96.836h1.76c1.762-31.692 5.285-63.384 8.808-96.836 1.762-31.692 5.284-63.384 8.807-93.316l33.468-274.663h262.453l-190.235 871.529v360.936H5786.75z"/>
<path id="today" d="M413.79 2521.129H124.997v-986.13H-.031v-246.532h538.849V1535H413.79v986.129zM883.963 2538.738c-70.438 0-128.549-12.326-176.094-38.74-47.546-24.654-82.765-58.112-105.657-100.374-22.892-42.263-35.22-88.047-35.22-137.354v-714.944c0-51.067 12.328-96.852 35.22-139.114 22.892-40.502 58.111-73.96 105.657-100.374 47.545-24.653 105.656-36.98 176.094-36.98 70.438 0 128.549 12.327 176.095 36.98 47.545 26.414 82.764 59.872 105.656 100.374 22.893 42.262 35.22 88.047 35.22 139.114v714.944c0 51.067-12.327 96.852-35.22 137.354-22.892 42.262-58.111 75.72-103.896 100.374-47.545 26.414-105.656 38.74-177.855 38.74zm0-235.966c17.61 0 29.936-5.283 35.219-14.088 5.283-8.804 7.044-22.892 7.044-42.262v-683.247c0-19.37-1.761-33.458-7.044-42.263-5.283-8.805-17.61-14.087-35.219-14.087-15.848 0-26.414 5.282-31.697 14.087-7.044 8.805-8.805 22.893-8.805 42.263v683.247c0 19.37 1.761 33.458 8.805 42.262 5.283 8.805 15.849 14.088 31.697 14.088zM1259.044 2521.129V1288.467h315.21c68.676 0 126.788 12.327 174.333 35.22 47.546 24.653 82.764 58.11 107.418 100.373 22.892 44.024 35.219 93.33 35.219 151.442v658.593c0 86.286-28.176 156.724-84.526 207.791-56.35 52.829-133.832 79.243-232.445 79.243h-315.209zm308.166-996.695h-33.458v760.728h33.458c15.848 0 26.414-5.282 35.219-14.087 8.804-8.805 12.326-26.414 12.326-52.829V1589.59c0-24.653-3.522-42.263-10.565-51.067-8.805-8.805-21.132-14.088-36.98-14.088zM2282.153 2521.129l-21.131-332.819 3.522-29.936-3.522-47.545c-5.283-96.852-12.327-193.704-17.61-295.839-7.043-100.374-12.326-193.704-15.848-281.751h-3.522c-5.283 88.047-10.565 181.377-17.61 281.751-7.043 102.135-14.087 198.987-19.37 295.839l-1.76 47.545 1.76 29.936-21.131 332.819h-260.62l128.55-1232.662h399.734l130.31 1232.662h-281.752zm-146.158-243.01V2040.39h167.29v237.728h-167.29zM2685.41 2521.129v-345.145l-193.704-887.517H2780.5l35.219 274.708c5.283 29.936 8.804 61.633 12.326 93.33 1.761 33.458 3.522 65.155 5.283 96.852h1.761c1.761-31.697 5.283-63.394 8.805-96.852 1.76-31.697 5.283-63.394 8.805-93.33l33.457-274.708h262.381l-190.182 871.668v360.994H2685.41z"/>
<path id="robert" d="M3403.139 2093.232l199.945-10.225 92.02 374.897h-213.578l-48.85-220.394-29.537-144.278zm26.129-262.428h-38.626v193.129h38.626c14.769 0 26.13-5.68 34.081-15.905 7.953-10.225 12.497-27.265 12.497-51.122v-61.347c0-23.857-4.544-39.762-12.497-49.986-7.952-10.225-19.312-14.769-34.081-14.769zm13.633 358.992h-52.259v268.108h-205.625v-795.235h257.884c73.843 0 132.917 20.449 174.951 62.482 42.034 42.034 63.62 97.7 63.62 168.136v64.755c0 70.435-21.586 126.101-63.62 168.135-42.034 42.034-101.108 63.619-174.951 63.619zM3983.66 2472.672c-57.938 0-106.788-10.224-145.414-30.673-38.626-20.449-67.027-47.714-86.34-80.66-20.449-32.945-29.537-69.299-29.537-109.06v-383.985c0-39.762 9.088-77.252 29.537-110.197 19.313-32.946 47.714-59.075 86.34-79.524 38.626-20.449 86.34-30.673 144.278-30.673 57.939 0 106.789 10.224 146.55 29.537 38.626 20.45 67.028 47.714 86.34 80.66 19.313 32.945 28.402 70.435 28.402 110.197v383.985c0 39.761-9.089 77.251-28.401 110.196-19.313 32.946-47.715 60.211-86.34 79.524-38.626 20.449-87.476 30.673-145.415 30.673zm0-172.68c19.313 0 31.81-4.543 38.626-15.904 5.68-10.224 9.088-23.857 9.088-42.034v-363.536c0-18.177-3.408-32.945-9.088-43.17-6.816-10.224-19.313-14.768-38.626-14.768-19.312 0-31.809 4.544-37.49 14.768-6.816 10.225-10.224 24.993-10.224 43.17v363.536c0 18.177 3.408 31.81 10.225 42.034 5.68 11.36 18.177 15.905 37.49 15.905zM4559.638 2457.904h-263.564v-795.235h252.203c78.388 0 137.462 17.04 176.088 52.258 37.49 35.218 56.802 80.66 56.802 138.598v45.442c0 35.218-5.68 65.891-18.176 90.884-12.497 24.993-34.082 43.17-65.891 55.667 34.081 13.632 59.074 32.945 73.843 59.074 14.769 26.13 22.721 57.939 22.721 93.156v55.667c0 60.21-19.313 110.197-56.802 147.686-37.49 37.49-96.565 56.803-177.224 56.803zm-21.585-633.916h-36.354v151.094h36.354c13.632 0 23.857-4.544 31.81-12.496 6.815-7.952 10.224-22.721 10.224-43.17v-42.034c0-19.313-3.409-32.945-10.225-40.898-7.952-7.952-18.177-12.496-31.81-12.496zm2.272 472.597c17.04 0 29.537-4.545 37.49-14.77 7.952-10.224 11.36-26.128 11.36-48.85v-52.258c0-23.857-3.408-39.761-11.36-49.986-7.953-10.224-20.45-14.768-37.49-14.768h-38.626v180.632h38.626zM5238.996 2278.408v179.496h-402.162v-795.235h402.162v179.496h-184.04v113.605h170.407v172.68h-170.407v149.958h184.04zM5507.103 2093.232l199.945-10.225 92.02 374.897h-213.577l-48.85-220.394-29.538-144.278zm26.13-262.428h-38.626v193.129h38.626c14.768 0 26.129-5.68 34.081-15.905 7.952-10.225 12.497-27.265 12.497-51.122v-61.347c0-23.857-4.545-39.762-12.497-49.986-7.952-10.225-19.313-14.769-34.081-14.769zm13.632 358.992h-52.258v268.108h-205.625v-795.235h257.883c73.843 0 132.918 20.449 174.952 62.482 42.034 42.034 63.619 97.7 63.619 168.136v64.755c0 70.435-21.585 126.101-63.62 168.135-42.033 42.034-101.108 63.619-174.95 63.619zM6137.611 2457.904h-220.394v-615.74H5804.75V1662.67h445.331v179.496h-112.469v615.739z"/>
<path id="grimm" d="M3415.348 3329.185c-43.055 0-82.62-10.473-117.529-33.746-34.91-20.946-62.837-51.2-82.619-88.437-19.782-36.073-30.255-76.801-30.255-119.856V2725.25c0-43.055 10.473-83.783 32.582-119.856 22.11-36.073 53.528-66.328 96.583-88.438 43.055-22.109 95.42-32.582 158.257-32.582 66.328 0 121.02 10.473 161.747 32.582 40.728 22.11 70.983 50.037 90.765 84.947 19.782 36.073 29.091 74.473 29.091 116.365v44.218l-224.584 5.819v-40.728c0-17.455-4.655-32.582-12.8-43.055-8.146-10.473-23.273-15.128-43.056-15.128-18.618 0-32.582 5.819-40.727 16.292-9.31 11.636-13.964 27.927-13.964 48.873v345.604c0 19.782 4.655 36.073 15.127 47.71 10.473 11.636 24.437 17.454 41.892 17.454 19.782 0 33.746-5.818 44.218-18.618 9.31-12.8 13.964-29.091 13.964-51.2l109.383 2.327c0 79.128-19.782 140.801-59.346 185.02-40.728 44.219-96.583 66.328-168.729 66.328zm339.786-13.964h-171.057l-18.618-134.983-31.419-45.383v-126.837h-59.346v-162.911h280.44v470.114zM4058.846 2949.835l219.93-13.964 103.565 379.35h-235.057l-54.692-223.42-33.746-141.966zm27.928-268.803h-46.546v187.348h46.546c17.455 0 30.255-5.819 40.728-16.291 9.309-10.473 13.964-26.764 13.964-51.201v-53.528c0-24.437-4.655-40.728-13.964-51.2-10.473-10.473-23.273-15.128-40.728-15.128zm18.618 366.55h-64v267.64h-225.748v-814.556h289.748c80.292 0 143.13 22.11 190.839 65.165 46.546 44.218 69.819 104.728 69.819 181.529v53.528c0 75.637-23.273 136.147-69.819 180.366-47.71 44.218-110.547 66.328-190.839 66.328zM4428.887 2500.666H4668.6v814.555h-239.712zM4736.09 3315.221v-814.555h302.55l43.055 287.422c5.818 29.091 10.473 59.346 15.127 88.437 4.655 30.255 8.146 60.51 11.637 90.765h2.327c3.491-30.255 8.146-60.51 12.8-90.765 4.655-29.091 9.31-59.346 13.964-88.437l44.219-287.422h278.112v814.555h-217.603V3024.31c0-30.255 1.164-60.51 3.491-90.765 1.164-29.091 3.491-59.346 5.819-88.437h-1.164l-27.928 153.601-54.691 316.513h-155.93l-54.69-320.004-13.965-76.8c-4.654-24.437-9.309-50.037-12.8-75.638h-3.49c3.49 29.092 5.818 59.346 6.981 89.601 1.164 31.419 2.328 61.674 2.328 91.929v290.912H4736.09zM5526.21 3315.221v-814.555h302.548l43.055 287.422c5.818 29.091 10.473 59.346 15.128 88.437 4.654 30.255 8.145 60.51 11.636 90.765h2.327c3.491-30.255 8.146-60.51 12.8-90.765 4.655-29.091 9.31-59.346 13.964-88.437l44.219-287.422h278.112v814.555h-217.602V3024.31c0-30.255 1.163-60.51 3.49-90.765 1.164-29.091 3.492-59.346 5.819-88.437h-1.164l-27.927 153.601-54.692 316.513h-155.929l-54.691-320.004-13.964-76.8c-4.655-24.437-9.31-50.037-12.8-75.638h-3.491c3.49 29.092 5.818 59.346 6.982 89.601 1.163 31.419 2.327 61.674 2.327 91.929v290.912h-200.148z"/>
<path id="paucity" d="M205.043 2985.047L189.651 2869.3l1.847-9.85-1.847-11.698c-4.925-31.4-9.235-63.415-12.929-96.046-3.694-32.015-7.388-63.414-10.466-94.814h-2.463c-3.078 31.4-6.773 62.8-11.082 94.814-4.926 32.631-9.851 64.646-14.16 96.046l-1.848 13.545 1.847 8.003-14.776 115.747H-.592l80.653-430.972h172.39l81.268 430.972H205.043zm-84.963-75.728v-97.892h85.579v97.892H120.08zM590.456 2864.375h-34.478v120.672h-126.83v-430.972h161.308c31.4 0 57.257 5.54 78.19 17.239 20.318 11.697 36.325 27.705 46.792 48.022 9.85 20.318 15.392 43.097 15.392 69.572v41.25c0 25.858-5.542 48.638-16.008 68.955-11.082 20.318-27.09 36.325-47.407 48.023-20.933 11.698-46.791 17.239-76.96 17.239zm-11.698-212.408h-25.243v114.516h25.243c10.466 0 18.47-3.079 24.011-9.236 4.926-6.156 7.388-16.007 7.388-30.168v-35.709c0-14.16-2.462-24.627-7.388-30.784-5.54-5.54-13.545-8.619-24.011-8.619zM919.226 2985.047L903.834 2869.3l1.847-9.85-1.847-11.698c-4.925-31.4-9.235-63.415-12.929-96.046-3.694-32.015-7.388-63.414-10.466-94.814h-2.463c-3.078 31.4-6.773 62.8-11.082 94.814-4.926 32.631-9.851 64.646-14.16 96.046l-1.848 13.545 1.847 8.003-14.776 115.747H713.591l80.653-430.972h172.39l81.268 430.972H919.226zm-84.963-75.728v-97.892h85.579v97.892h-85.579zM1211.056 2993.667c-36.94 0-67.109-6.157-89.888-19.086-22.78-12.314-39.404-28.937-49.87-49.87-10.467-20.317-16.008-43.097-16.008-67.109v-303.527h126.83v293.061c0 12.93 2.462 23.396 6.772 30.168 3.694 6.772 11.698 10.467 22.78 10.467 11.698 0 19.701-3.695 24.011-10.467 4.31-6.772 6.157-17.239 6.157-30.168v-293.061h124.366v303.527c0 24.627-4.925 47.407-15.392 67.725-10.466 20.933-27.09 37.556-49.87 49.87-22.78 12.313-52.947 18.47-89.888 18.47zM1396.374 2857.602v-176.698c0-24.627 5.541-47.407 17.24-67.725 11.697-20.317 28.32-36.94 51.716-49.254 22.164-12.313 51.1-18.47 85.579-18.47 33.246 0 61.567 6.157 84.347 17.855 22.78 11.698 39.403 27.705 51.101 48.022 11.698 20.318 17.24 42.482 17.24 66.493v34.478l-118.21 3.694v-28.937c0-12.313-2.463-22.164-6.773-28.936-4.31-6.773-12.313-9.851-24.011-9.851-11.698 0-20.318 3.078-24.012 9.85-4.31 6.773-6.772 16.624-6.772 28.937v164.386c0 12.313 2.463 21.548 6.772 28.32 3.694 6.773 12.314 10.467 24.012 10.467s19.701-3.694 24.011-10.466c4.31-6.773 6.772-16.008 6.772-28.321v-25.859l118.21 2.463v32.63c0 24.012-5.541 46.176-17.239 66.494-11.698 20.317-28.32 36.94-51.1 48.638s-50.486 17.855-83.117 17.855c-35.093 0-64.03-6.157-86.81-19.086-22.78-12.314-40.019-28.937-51.717-49.87-11.698-20.317-17.239-43.097-17.239-67.109zM1731.301 2554.075h129.908v430.972H1731.3zM2087.162 2985.047h-129.908v-327.539h-71.418v-103.433h272.744v103.433h-71.418v327.54zM2259.55 2985.047v-121.903l-97.892-309.07h132.37l19.086 89.274c3.079 12.929 5.541 27.09 8.004 41.865 2.463 15.392 4.31 31.4 6.157 46.792h.616c1.847-15.392 3.694-31.4 6.156-46.792 2.463-14.776 4.926-28.936 8.004-41.865l19.086-89.273h121.288l-96.045 301.68v129.292h-126.83zM2721.307 2993.667c-35.71 0-65.262-6.157-89.273-18.47-24.011-11.698-41.25-27.706-52.948-48.023-11.698-20.318-17.855-41.866-17.855-65.877v-183.472c0-24.011 6.157-46.175 17.855-66.493 11.698-19.701 28.937-35.709 52.948-48.022 23.396-11.698 52.948-17.855 88.041-17.855 36.325 0 65.878 6.157 89.889 17.855 24.011 11.698 41.25 27.705 53.564 48.022 11.698 20.318 17.239 42.482 17.239 66.493v183.472c0 24.01-5.541 46.175-17.24 66.492-12.313 20.318-29.552 36.325-52.947 48.023-24.012 11.698-53.564 17.855-89.273 17.855zm0-99.74c12.929 0 21.548-3.694 25.858-10.466 4.31-6.157 6.157-16.008 6.157-27.706v-171.773c0-12.313-1.847-22.164-6.157-28.937-4.31-6.772-12.929-9.85-25.858-9.85-12.93 0-21.549 3.078-25.859 9.85-4.31 6.773-6.772 16.624-6.772 28.937v171.773c0 11.698 2.463 21.55 6.772 27.706 4.31 6.772 12.93 10.466 25.859 10.466zM3042.037 2985.047H2913.36v-430.972h234.572v103.433h-105.896v77.575h98.508v103.434h-98.508v146.53z"/>
<path id="integrity" d="M0 3005.566h73.747v310.98H0zM89.74 3316.546v-310.98h63.973l29.321 144.828h.444c-.888-8.44-1.777-17.326-2.221-26.655-.444-9.33-.889-18.215-.889-27.1v-91.073h62.197v310.98h-64.418L149.27 3173.94h-.444c.889 8.885 1.777 18.214 2.221 27.1.445 9.329.889 18.658.889 27.543v87.963H89.74zM356.739 3316.546H283.88v-248.784h-31.542v-62.196h135.943v62.196h-31.542v248.784zM521.558 3254.35v62.196H398.055v-310.98h123.503v62.196h-50.2v54.2h44.87v59.53h-44.87v72.858h50.2zM593.528 3320.989c-11.55 0-21.769-3.11-31.098-9.774-9.33-6.22-16.438-14.66-21.769-25.322-5.33-10.218-7.996-21.77-7.996-34.653v-179.48c0-12.883 3.11-24.878 8.885-35.54 5.775-10.218 14.66-18.659 26.655-25.323 11.995-6.664 26.656-9.774 43.982-9.774s31.986 3.11 43.093 9.33c11.106 6.664 19.547 15.105 25.322 25.323 5.331 10.662 7.997 22.212 7.997 35.096v29.765l-66.639 1.777v-28.432c0-4.443-.888-7.997-2.22-10.218-1.334-2.221-4-3.11-7.553-3.11-3.999 0-6.22 1.333-7.553 3.554-1.777 2.221-2.22 5.775-2.22 10.218v173.26c0 4.887.888 7.997 2.665 10.218 1.332 2.222 3.998 3.554 7.108 3.554 3.998 0 7.108-1.332 8.885-3.554 1.333-2.221 2.221-5.775 2.221-10.662l29.321-.888c0 23.545-4.887 41.76-15.105 54.643-10.217 13.328-24.878 19.992-43.981 19.992zm95.515-4.443h-49.312l-6.22-38.206-10.218-9.33v-70.636h-10.218v-57.754h75.968v175.926zM770.787 3166.387l63.084-1.332 27.544 151.491h-68.86l-13.772-87.963-7.996-62.196zm7.996-103.512h-8.44v86.186h8.44c3.999 0 7.108-2.221 9.33-6.664 1.777-3.998 2.665-11.106 2.665-20.88v-32.875c0-9.33-.888-15.993-2.665-19.991-2.222-3.999-5.331-5.776-9.33-5.776zm2.222 141.718h-11.551v111.953h-65.75v-310.98h77.3c25.323 0 44.426 7.552 57.31 22.213 12.883 15.105 19.547 34.652 19.547 58.642v36.429c0 23.99-6.664 43.537-19.547 58.642-13.328 15.55-32.431 23.101-57.31 23.101zM872.522 3005.566h73.746v310.98h-73.746zM1060.443 3316.546h-72.859v-248.784h-31.542v-62.196h135.943v62.196h-31.542v248.784zM1141.742 3316.546v-87.074l-48.869-223.906h72.859l8.885 69.304c1.333 7.553 2.221 15.55 3.11 23.546.444 8.44.888 16.437 1.332 24.434h.445c.444-7.997 1.332-15.993 2.22-24.434.445-7.997 1.334-15.993 2.222-23.546l8.441-69.304h66.194l-47.98 219.908v91.072h-68.86zM1420.735 3316.546l-7.996-15.104c-6.664 6.22-13.772 11.106-21.769 14.66-7.996 3.554-16.882 5.331-26.211 5.331-13.772 0-25.323-3.554-34.652-10.218-9.774-6.664-17.326-16.437-22.213-28.877-4.887-11.994-7.552-26.655-7.552-43.092 0-19.104 3.554-36.43 10.218-51.979 6.663-15.104 15.993-28.876 28.876-40.871-4.442-12.44-7.996-24.434-10.662-36.43-2.665-11.55-3.998-22.657-3.998-32.874 0-17.327 3.11-31.987 8.885-43.093 5.775-11.107 13.328-19.548 23.101-25.323 9.774-5.331 20.436-7.997 31.987-7.997 11.995 0 22.213 2.222 31.542 6.664 8.885 4.887 15.993 11.55 21.325 20.436 4.886 8.885 7.552 19.992 7.552 32.875 0 17.326-4.443 33.32-12.884 47.091-8.885 14.217-19.991 27.1-32.875 39.095 3.11 8.44 6.664 17.326 10.218 25.767 3.554 8.885 7.108 17.77 10.662 26.211.889-6.22 1.777-12.883 3.11-19.547.889-6.664 1.777-13.772 2.222-20.88l1.332-10.663 54.644 1.777-1.333 10.663c-2.221 18.658-5.775 35.54-10.662 51.09-5.331 15.548-11.55 30.209-18.215 43.092 7.109 12.884 13.772 24.879 19.992 35.54a492.335 492.335 0 0015.55 26.656h-70.194zm-39.094-243.897c0 4.887.444 9.774.888 15.549.445 5.775 1.333 11.55 3.11 17.77 3.11-6.22 5.331-12.439 7.108-19.103 1.777-6.664 2.666-12.883 2.666-18.659 0-4.886-.445-8.885-1.333-11.995-1.333-2.665-3.11-3.998-5.331-3.998-2.221 0-3.998 1.777-5.331 5.331-1.333 3.554-1.777 8.441-1.777 15.105zm-4.443 194.585c4.443 0 8.885-1.777 13.328-5.331-4.443-8.441-8.885-17.77-13.772-27.989-5.331-9.773-9.774-19.991-14.66-30.21-1.333 5.332-1.778 10.219-2.222 14.661-.444 4.887-.888 9.33-.888 13.328 0 11.995 1.777 20.88 5.775 26.656 3.554 5.775 7.552 8.885 12.44 8.885zM1544.683 3005.566h73.747v310.98h-73.747zM1634.423 3316.546v-310.98h87.075l10.218 120.838c.888 7.552 1.777 14.66 2.22 22.213.445 7.552 1.334 15.105 1.778 22.657h.444c.444-7.552 1.333-15.105 2.222-22.657.444-7.552 1.332-14.66 1.777-22.213l11.106-120.838h82.632v310.98h-63.529v-116.84c0-7.996 0-15.993.444-23.99.445-7.552.889-15.548 1.333-23.545h-.444c-.889 7.552-1.777 15.55-2.666 22.657l-2.665 22.657-11.995 119.061h-43.093l-11.55-119.505c-.89-7.552-1.778-15.105-2.666-22.657-1.333-7.552-2.222-14.66-3.11-22.213h-.444c.444 7.552.888 15.55 1.332 23.546.445 7.996.445 15.993.445 23.99v116.84h-60.864zM1936.074 3316.546l-5.331-83.964.889-7.553-.889-11.995c-1.333-24.434-3.11-48.868-4.443-74.635-1.777-25.323-3.11-48.868-3.998-71.081h-.888c-1.333 22.213-2.666 45.758-4.443 71.081-1.777 25.767-3.554 50.201-4.887 74.635l-.444 11.995.444 7.553-5.33 83.964h-65.751l32.43-310.98h100.847l32.875 310.98h-71.08zm-36.873-61.307v-59.975h42.204v59.975h-42.204zM2071.102 3320.989c-11.551 0-21.769-3.11-31.098-9.774-9.33-6.22-16.438-14.66-21.769-25.322-5.331-10.218-7.997-21.77-7.997-34.653v-179.48c0-12.883 3.11-24.878 8.886-35.54 5.775-10.218 14.66-18.659 26.655-25.323 11.995-6.664 26.655-9.774 43.982-9.774 17.326 0 31.986 3.11 43.093 9.33 11.106 6.664 19.547 15.105 25.322 25.323 5.331 10.662 7.997 22.212 7.997 35.096v29.765l-66.639 1.777v-28.432c0-4.443-.888-7.997-2.221-10.218-1.333-2.221-3.998-3.11-7.552-3.11-3.999 0-6.22 1.333-7.553 3.554-1.777 2.221-2.221 5.775-2.221 10.218v173.26c0 4.887.888 7.997 2.665 10.218 1.333 2.222 3.999 3.554 7.109 3.554 3.998 0 7.108-1.332 8.885-3.554 1.332-2.221 2.221-5.775 2.221-10.662l29.321-.888c0 23.545-4.887 41.76-15.105 54.643-10.218 13.328-24.878 19.992-43.981 19.992zm95.515-4.443h-49.312l-6.22-38.206-10.218-9.33v-70.636h-10.218v-57.754h75.968v175.926zM2181.278 3005.566h73.746v310.98h-73.746zM2271.018 3316.546v-310.98h63.973l29.32 144.828h.445c-.889-8.44-1.777-17.326-2.221-26.655-.445-9.33-.889-18.215-.889-27.1v-91.073h62.196v310.98h-64.417l-28.877-142.606h-.444c.888 8.885 1.777 18.214 2.221 27.1.444 9.329.889 18.658.889 27.543v87.963h-62.196zM2526.021 3316.546l-5.33-83.964.888-7.553-.889-11.995c-1.332-24.434-3.11-48.868-4.442-74.635-1.777-25.323-3.11-48.868-3.999-71.081h-.888c-1.333 22.213-2.666 45.758-4.443 71.081-1.777 25.767-3.554 50.201-4.886 74.635l-.445 11.995.445 7.553-5.332 83.964h-65.75l32.431-310.98h100.847l32.875 310.98h-71.082zm-36.873-61.307v-59.975h42.204v59.975h-42.204zM2690.84 3316.546h-72.857v-248.784h-31.543v-62.196h135.943v62.196h-31.542v248.784zM2732.157 3005.566h73.747v310.98h-73.747zM2900.53 3320.989c-17.77 0-32.43-3.11-44.425-9.774-11.995-6.22-20.88-14.66-26.656-25.322-5.775-10.663-8.885-22.213-8.885-34.653v-180.368c0-12.884 3.11-24.434 8.885-35.096 5.776-10.218 14.66-18.66 26.656-25.323 11.995-6.22 26.655-9.33 44.425-9.33 17.77 0 32.431 3.11 44.426 9.33 11.995 6.664 20.88 15.105 26.656 25.323 5.775 10.662 8.885 22.212 8.885 35.096v180.368c0 12.884-3.11 24.435-8.885 34.653-5.776 10.662-14.66 19.103-26.212 25.322-11.994 6.664-26.655 9.774-44.87 9.774zm0-59.53c4.443 0 7.553-1.333 8.886-3.555 1.332-2.221 1.777-5.775 1.777-10.662V3074.87c0-4.887-.445-8.44-1.777-10.662-1.333-2.221-4.443-3.554-8.886-3.554-3.998 0-6.663 1.333-7.996 3.554-1.777 2.221-2.221 5.775-2.221 10.662v172.372c0 4.887.444 8.441 2.22 10.662 1.334 2.222 4 3.554 7.997 3.554zM2995.157 3316.546v-310.98h63.973l29.321 144.828h.445c-.889-8.44-1.777-17.326-2.222-26.655-.444-9.33-.888-18.215-.888-27.1v-91.073h62.196v310.98h-64.417l-28.877-142.606h-.444c.888 8.885 1.777 18.214 2.22 27.1.445 9.329.89 18.658.89 27.543v87.963h-62.197z"/>
<path id="apocalypse-box" d="M3184.928 1288.643h3065.047v334.816H3184.928z"/>
<path id="apocalypse" d="M4112.587 1523.656h-38.333a30.63 30.63 0 01-1.667-5.208c-.417-1.875-.625-3.958-.625-6.042l.417-3.333v-47.5l-.834-4.375v-13.75c0-3.125-.416-5.417-1.458-7.083-1.042-1.459-2.708-2.292-5-2.292-4.792 0-7.292 3.125-7.292 9.375v3.542l-36.458-1.042v-3.333c0-10.625 3.958-19.584 11.667-26.667 7.708-6.875 19.375-10.417 34.583-10.417 13.958 0 24.792 3.334 32.083 9.792 7.292 6.667 10.834 15.417 10.834 26.042v66.041c0 2.917.208 5.834.625 8.542.208 2.917.833 5.417 1.458 7.708zm-36.25-75.833l1.042 20-9.375 4.583c-3.542 1.667-6.042 3.75-7.709 6.042-1.875 2.292-2.708 5.208-2.708 8.75 0 3.333.625 5.833 1.667 7.708 1.041 1.875 2.5 2.709 4.375 2.709a7.937 7.937 0 004.583-1.459c1.25-1.041 2.708-2.291 4.167-3.75l3.125 16.042c-2.917 4.375-6.875 8.542-11.667 12.083-5 3.542-11.042 5.417-17.917 5.417-8.333 0-14.791-2.917-19.583-8.542-4.792-5.625-7.083-12.916-7.083-21.875 0-7.5 1.666-13.958 4.791-19.166 3.125-5.209 7.709-9.584 13.75-13.125 6.042-3.542 13.334-6.875 21.875-9.792l16.667-5.625zM4120.915 1523.656v-115.208h38.75v13.333c3.959-4.791 8.75-8.75 14.167-11.458s11.458-4.167 18.333-4.167c7.5 0 13.334 2.5 17.709 7.292 4.166 5 6.25 12.5 6.25 22.292v87.916h-38.959v-73.958c0-5-1.875-7.5-5.416-7.5-1.875 0-3.542.625-5.417 1.667-1.875 1.041-4.167 3.125-6.458 5.833v73.958h-38.959zM4342.997 1523.656h-38.333a30.63 30.63 0 01-1.667-5.208c-.417-1.875-.625-3.958-.625-6.042l.417-3.333v-47.5l-.834-4.375v-13.75c0-3.125-.416-5.417-1.458-7.083-1.042-1.459-2.708-2.292-5-2.292-4.792 0-7.292 3.125-7.292 9.375v3.542l-36.458-1.042v-3.333c0-10.625 3.958-19.584 11.667-26.667 7.708-6.875 19.375-10.417 34.583-10.417 13.958 0 24.792 3.334 32.083 9.792 7.292 6.667 10.834 15.417 10.834 26.042v66.041c0 2.917.208 5.834.625 8.542.208 2.917.833 5.417 1.458 7.708zm-36.25-75.833l1.042 20-9.375 4.583c-3.542 1.667-6.042 3.75-7.709 6.042-1.875 2.292-2.708 5.208-2.708 8.75 0 3.333.625 5.833 1.667 7.708 1.041 1.875 2.5 2.709 4.375 2.709a7.937 7.937 0 004.583-1.459c1.25-1.041 2.708-2.291 4.167-3.75l3.125 16.042c-2.917 4.375-6.875 8.542-11.667 12.083-5 3.542-11.042 5.417-17.917 5.417-8.333 0-14.791-2.917-19.583-8.542-4.792-5.625-7.083-12.916-7.083-21.875 0-7.5 1.666-13.958 4.791-19.166 3.125-5.209 7.709-9.584 13.75-13.125 6.042-3.542 13.334-6.875 21.875-9.792l16.667-5.625zM4351.335 1556.364v-147.916h38.75v10.208c3.959-3.958 8.334-6.875 13.125-9.166 4.584-2.292 10-3.334 16.25-3.334 8.125 0 14.792 2.709 19.792 8.125 4.792 5.625 7.292 14.584 7.292 27.084v46.458c0 11.25-3.334 20.417-9.584 27.5-6.458 7.292-15.833 10.833-27.708 10.833-5 0-9.375-.625-13.333-2.083-3.959-1.458-7.292-2.917-10-4.792-2.709-1.875-4.584-3.333-6.042-4.375l8.125-21.666c1.458 1.041 3.125 1.875 5 2.5s3.75 1.041 5.833 1.041c3.125 0 5.417-1.041 6.875-3.125 1.25-1.875 1.875-4.583 1.875-8.125v-36.666c0-6.459-2.083-9.584-6.25-9.584-3.541 0-7.291 2.084-11.041 6.042v111.041h-38.959zM4455.504 1486.156v-39.166c0-7.292 1.666-14.167 5.208-20.417 3.333-6.25 8.542-11.25 15.625-15.208 6.875-3.959 15.833-5.834 26.667-5.834 11.041 0 20 1.875 26.875 5.625 6.875 3.959 12.083 8.959 15.625 15.209 3.333 6.25 5 13.125 5 20.625v39.166c0 7.292-1.667 13.959-5 20-3.542 6.042-8.75 11.042-15.625 14.792s-15.834 5.625-26.875 5.625c-10.834 0-19.792-1.875-26.667-5.625-7.083-3.75-12.292-8.75-15.625-15-3.542-6.042-5.208-12.708-5.208-19.792zm47.708 10c3.125 0 5.208-.833 6.458-2.708 1.25-1.667 1.875-4.375 1.875-8.333v-37.709c0-3.958-.625-6.875-1.875-8.541-1.25-1.667-3.333-2.5-6.458-2.5s-5.208.833-6.667 2.5c-1.458 1.666-2.083 4.583-2.083 8.541v37.709c0 3.958.625 6.666 2.083 8.333 1.459 1.875 3.542 2.708 6.667 2.708zM4558.834 1486.365v-40.625c0-7.292 1.666-13.75 5.208-20 3.542-6.042 8.75-10.834 15.625-14.584s15.625-5.625 26.042-5.625c10.625 0 19.375 1.875 25.833 5.417 6.458 3.542 11.25 8.333 14.375 14.167 2.917 6.041 4.375 12.5 4.375 19.583v8.333l-36.458 1.042v-7.708c0-3.125-.625-5.625-1.667-7.292-1.25-1.667-3.333-2.5-6.042-2.5-3.125 0-5.208 1.042-6.458 2.708-1.25 1.875-1.875 4.584-1.875 8.125v37.5c0 3.542.625 6.042 1.875 7.917 1.042 2.083 3.333 2.917 6.458 2.917s5.209-.834 6.25-2.709c1.042-1.666 1.459-3.958 1.459-7.083v-7.708l36.458.833v8.333c0 6.875-1.458 13.334-4.375 19.375-2.917 6.042-7.708 10.834-14.167 14.375-6.458 3.542-15.208 5.417-25.833 5.417-10.625 0-19.375-1.875-26.25-5.625s-12.083-8.75-15.625-14.792c-3.542-6.041-5.208-12.5-5.208-19.791zM4748.837 1523.656h-38.333a30.63 30.63 0 01-1.667-5.208c-.417-1.875-.625-3.958-.625-6.042l.417-3.333v-47.5l-.834-4.375v-13.75c0-3.125-.416-5.417-1.458-7.083-1.042-1.459-2.708-2.292-5-2.292-4.792 0-7.292 3.125-7.292 9.375v3.542l-36.458-1.042v-3.333c0-10.625 3.958-19.584 11.667-26.667 7.708-6.875 19.375-10.417 34.583-10.417 13.958 0 24.792 3.334 32.083 9.792 7.292 6.667 10.834 15.417 10.834 26.042v66.041c0 2.917.208 5.834.625 8.542.208 2.917.833 5.417 1.458 7.708zm-36.25-75.833l1.042 20-9.375 4.583c-3.542 1.667-6.042 3.75-7.709 6.042-1.875 2.292-2.708 5.208-2.708 8.75 0 3.333.625 5.833 1.667 7.708 1.041 1.875 2.5 2.709 4.375 2.709a7.937 7.937 0 004.583-1.459c1.25-1.041 2.708-2.291 4.167-3.75l3.125 16.042c-2.917 4.375-6.875 8.542-11.667 12.083-5 3.542-11.042 5.417-17.917 5.417-8.333 0-14.791-2.917-19.583-8.542-4.792-5.625-7.083-12.916-7.083-21.875 0-7.5 1.666-13.958 4.791-19.166 3.125-5.209 7.709-9.584 13.75-13.125 6.042-3.542 13.334-6.875 21.875-9.792l16.667-5.625zM4757.374 1371.573h39.791v152.083h-39.791zM4810.712 1556.364v-27.708h9.583c2.709 0 4.584-1.041 5.625-3.125 1.042-2.291 1.25-5.416.209-9.791l-24.584-107.292h42.917l4.792 38.958c.416 3.542.833 7.5 1.25 11.875.416 4.375.833 8.959 1.25 13.334.416 4.583.625 8.958.833 13.125h.208c.209-4.167.625-8.542 1.042-13.125.208-4.375.625-8.959 1.042-13.334a543.33 543.33 0 011.25-11.875l4.375-38.958h38.958l-24.167 111.042c-2.916 13.125-7.291 22.708-12.916 28.333-5.834 5.625-14.167 8.541-24.792 8.541h-26.875zM4903.625 1556.364v-147.916h38.75v10.208c3.959-3.958 8.334-6.875 13.125-9.166 4.584-2.292 10-3.334 16.25-3.334 8.125 0 14.792 2.709 19.792 8.125 4.792 5.625 7.292 14.584 7.292 27.084v46.458c0 11.25-3.334 20.417-9.584 27.5-6.458 7.292-15.833 10.833-27.708 10.833-5 0-9.375-.625-13.333-2.083-3.959-1.458-7.292-2.917-10-4.792-2.709-1.875-4.584-3.333-6.042-4.375l8.125-21.666c1.458 1.041 3.125 1.875 5 2.5s3.75 1.041 5.833 1.041c3.125 0 5.417-1.041 6.875-3.125 1.25-1.875 1.875-4.583 1.875-8.125v-36.666c0-6.459-2.083-9.584-6.25-9.584-3.541 0-7.291 2.084-11.041 6.042v111.041h-38.959zM5005.502 1488.656l34.792-1.666c.208 3.958 1.458 7.083 3.333 8.958 1.875 2.083 4.375 3.125 7.708 3.125 2.292 0 4.167-.625 5.417-1.875 1.25-1.042 1.875-2.708 1.875-4.583 0-2.292-1.042-4.375-3.125-6.042-2.292-1.458-5-2.917-8.333-4.375-3.542-1.25-7.084-2.5-11.042-3.958-9.792-3.542-17.083-8.334-21.875-14.375-4.792-6.042-7.083-13.125-7.083-21.667 0-11.875 3.75-20.833 11.458-27.292 7.5-6.25 17.917-9.375 31.458-9.375 13.125 0 23.542 3.334 31.25 10 7.709 6.875 11.875 16.042 12.917 27.709l-34.792 1.666c-.208-3.75-1.25-6.666-2.708-8.75-1.667-2.083-3.958-3.125-6.667-3.125-2.291 0-3.958.625-5 1.667-1.25 1.042-1.875 2.708-1.875 4.583 0 3.125 2.084 5.625 6.042 7.292a199.092 199.092 0 0014.375 5.417c10.833 3.958 18.75 8.958 23.958 15.208 5.209 6.25 7.709 13.75 7.709 22.292 0 11.875-3.75 20.833-11.459 27.291-7.916 6.459-18.333 9.792-31.875 9.792-14.375 0-25.416-3.333-33.333-10-7.917-6.667-12.292-16.042-13.125-27.917zM5101.334 1486.365v-40.625c0-7.084 1.666-13.75 5.208-19.792 3.333-6.042 8.542-11.042 15.417-14.792s15.416-5.625 25.625-5.625c10.416 0 18.958 1.875 25.833 5.625s11.875 8.542 15.417 14.584c3.333 6.25 5 12.708 5 20v29.791h-58.125v-23.333h21.041v-7.5c0-3.542-.625-6.042-1.666-7.917-1.25-1.875-3.542-2.708-6.667-2.708s-5.208.833-6.458 2.708c-1.459 1.875-2.084 4.584-2.084 7.917v42.708c0 3.334.625 6.042 2.084 7.917 1.25 1.875 3.333 2.917 6.458 2.917s5.417-.834 6.667-2.292c1.041-1.458 1.666-3.333 1.666-6.042v-4.791l37.084.833v4.375c0 6.458-1.667 12.292-5 17.708-3.334 5.625-8.334 10-15.209 13.334-6.875 3.541-15.416 5.208-25.625 5.208-10.416 0-18.958-1.875-25.833-5.625s-12.083-8.75-15.625-14.792c-3.542-6.041-5.208-12.708-5.208-19.791zM5230.085 1523.656v-152.083h38.959v47.083c3.958-3.75 8.125-6.875 12.708-9.166 4.583-2.292 10-3.334 16.458-3.334 8.125 0 14.792 2.709 19.792 8.125 4.792 5.625 7.292 14.584 7.292 27.084v46.458c0 11.25-3.334 20.417-9.584 27.5-6.458 7.292-15.833 10.833-27.708 10.833-7.5 0-13.75-1.25-18.542-3.958-5-2.708-8.541-5-10.833-7.292l8.333-21.875c1.459 1.042 2.917 1.875 4.792 2.5s3.75 1.042 5.625 1.042c3.125 0 5.417-1.042 6.875-3.125 1.458-1.875 2.083-4.583 2.083-8.125v-36.667c0-6.458-2.083-9.583-6.25-9.583-3.541 0-7.291 2.083-11.041 6.042v55.833l-6.042 9.792-1.25 12.916h-31.667zM5336.122 1556.364v-27.708h9.583c2.709 0 4.584-1.041 5.625-3.125 1.042-2.291 1.25-5.416.209-9.791l-24.584-107.292h42.917l4.792 38.958c.416 3.542.833 7.5 1.25 11.875.416 4.375.833 8.959 1.25 13.334.416 4.583.625 8.958.833 13.125h.208c.209-4.167.625-8.542 1.042-13.125.208-4.375.625-8.959 1.042-13.334a543.33 543.33 0 011.25-11.875l4.375-38.958h38.958l-24.167 111.042c-2.916 13.125-7.291 22.708-12.916 28.333-5.834 5.625-14.167 8.541-24.792 8.541h-26.875z"/>
<path id="rebase-box" d="M0 3355.24h6250v811.425H0z"/>
<g transform="translate(-1189.78 -12065.7) scale(4.6589)">
<clipPath id="a"><path d="M267.283 3320.45h1317.71v152.761H267.283z"/></clipPath>
<g clip-path="url(#a)">
<path id="rebase" d="M300.617 3400.648l31.041-.833 13.542 70.625h-33.542l-7.083-41.042-3.958-28.75zm3.75-48.333h-4.375v39.375h4.375c2.291 0 3.75-1.042 4.791-2.917 1.042-1.875 1.459-5.208 1.459-9.791v-14.792c0-4.375-.417-7.291-1.459-9.166-1.041-1.875-2.5-2.709-4.791-2.709zm1.458 66.25h-6.25v51.875h-32.292v-145.833h38.542c12.292 0 21.667 3.542 28.125 10.625 6.458 7.292 9.583 16.667 9.583 28.333v15.833c0 11.459-3.333 20.834-9.791 28.125-6.459 7.292-15.834 11.042-27.917 11.042zM412.074 3440.648v29.792h-61.25v-145.833h61.25v29.792H386.45v24.791h23.125v28.542H386.45v32.916h25.625zM457.7 3470.44h-39.167v-145.833h37.5c12.709 0 21.875 2.917 27.917 8.542 5.833 5.833 8.75 13.333 8.75 22.5v15c0 5.624-.833 10.416-2.5 14.374-1.875 3.959-5.208 6.875-10.417 9.167 5.625 2.292 9.375 5.625 11.667 10 2.083 4.375 3.125 9.375 3.125 15.208v17.5c0 10-2.917 18.125-8.958 24.167-6.042 6.25-15.209 9.375-27.917 9.375zm-2.5-118.75h-4.167v31.667h4.167c1.875 0 3.333-.834 4.375-2.292.833-1.458 1.25-3.75 1.25-6.875v-13.75c0-3.125-.417-5.416-1.25-6.875-1.042-1.25-2.5-1.875-4.375-1.875zm.417 91.667c2.083 0 3.75-.834 4.791-2.5 1.042-1.459 1.459-3.959 1.459-7.5v-16.875c0-3.959-.417-6.667-1.459-8.125-1.041-1.459-2.5-2.292-4.791-2.292h-4.584v37.292h4.584zM543.742 3470.44l-2.917-39.375.417-3.542-.417-5.416c-.625-11.25-1.458-22.709-2.292-34.584-1.041-11.666-1.666-22.708-2.291-33.333h-.417c-.625 10.625-1.25 21.667-2.292 33.333a1081.449 1081.449 0 00-2.5 34.584l-.416 5.625.416 3.333-2.916 39.375h-32.292l16.875-145.833h48.75l16.875 145.833h-34.583zm-18.75-28.333v-28.75h20.833v28.75h-20.833zM616.45 3472.732c-12.292 0-21.459-3.334-27.917-10.209-6.458-6.875-9.792-18.333-10.208-34.375l31.666-1.25c.209 7.292.625 12.084 1.459 14.375.625 2.5 2.083 3.75 4.166 3.75 1.875 0 3.125-.833 3.959-2.291.625-1.459 1.041-3.125 1.041-5.209 0-3.75-1.041-7.291-2.708-10.416-1.875-3.125-4.375-6.459-7.292-9.792-3.125-3.333-6.458-6.875-10-10.833a87.856 87.856 0 01-15.833-20.625c-4.167-7.5-6.25-16.042-6.25-25.417 0-7.708 1.458-14.375 4.375-20s7.083-10.208 12.708-13.333c5.417-3.125 12.084-4.583 19.792-4.583 12.292 0 21.458 3.333 27.5 10.208 6.042 6.875 9.167 18.125 9.583 33.75l-31.25 1.25c-.208-6.667-.625-11.25-1.25-13.75-.833-2.5-2.083-3.75-3.958-3.75s-3.125.625-3.542 2.083c-.625 1.459-1.041 3.334-1.041 5.625 0 3.334 1.041 6.459 2.916 9.583 1.875 3.125 4.375 6.25 7.5 9.375s6.25 6.667 9.375 10.209c6.459 6.041 11.875 13.125 16.042 20.833 4.167 7.917 6.25 16.875 6.25 26.667 0 7.5-1.458 14.166-4.375 19.791-2.917 5.834-7.083 10.417-12.5 13.542-5.625 3.125-12.292 4.792-20.208 4.792zM720.2 3440.648v29.792h-61.25v-145.833h61.25v29.792h-25.626v24.791H717.7v28.542h-23.125v32.916H720.2zM771.867 3320.44L752.7 3491.273h-29.583l19.166-170.833h29.584zM811.033 3472.732c-12.292 0-21.459-3.334-27.917-10.209-6.458-6.875-9.792-18.333-10.208-34.375l31.666-1.25c.209 7.292.625 12.084 1.459 14.375.625 2.5 2.083 3.75 4.166 3.75 1.875 0 3.125-.833 3.959-2.291.625-1.459 1.041-3.125 1.041-5.209 0-3.75-1.041-7.291-2.708-10.416-1.875-3.125-4.375-6.459-7.292-9.792-3.125-3.333-6.458-6.875-10-10.833a87.856 87.856 0 01-15.833-20.625c-4.167-7.5-6.25-16.042-6.25-25.417 0-7.708 1.458-14.375 4.375-20s7.083-10.208 12.708-13.333c5.417-3.125 12.084-4.583 19.792-4.583 12.292 0 21.458 3.333 27.5 10.208 6.042 6.875 9.167 18.125 9.583 33.75l-31.25 1.25c-.208-6.667-.625-11.25-1.25-13.75-.833-2.5-2.083-3.75-3.958-3.75s-3.125.625-3.542 2.083c-.625 1.459-1.041 3.334-1.041 5.625 0 3.334 1.041 6.459 2.916 9.583 1.875 3.125 4.375 6.25 7.5 9.375s6.25 6.667 9.375 10.209c6.459 6.041 11.875 13.125 16.042 20.833 4.167 7.917 6.25 16.875 6.25 26.667 0 7.5-1.458 14.166-4.375 19.791-2.917 5.834-7.083 10.417-12.5 13.542-5.625 3.125-12.292 4.792-20.208 4.792zM892.908 3422.523h-5.625v47.917h-33.75v-145.833h39.375c8.542 0 15.417 1.667 20.625 5 5.209 3.542 9.167 8.125 11.875 13.958 2.5 6.042 3.75 12.709 3.75 20.209v19.583c0 7.5-1.25 14.166-3.958 20-2.708 6.041-6.667 10.625-11.875 13.958-5.417 3.542-12.292 5.208-20.417 5.208zm-2.083-70.208h-3.958v43.333h3.958c2.292 0 3.75-1.041 4.792-3.333 1.041-2.083 1.458-5.625 1.458-10.625v-15.417c0-5.208-.417-8.75-1.458-10.833-1.042-2.083-2.5-3.125-4.792-3.125zM991.866 3440.648v29.792h-56.667v-145.833h35.625v116.041h21.042zM1040.617 3470.44l-2.917-39.375.417-3.542-.417-5.416c-.625-11.25-1.458-22.709-2.292-34.584-1.041-11.666-1.666-22.708-2.291-33.333h-.417c-.625 10.625-1.25 21.667-2.292 33.333a1081.449 1081.449 0 00-2.5 34.584l-.416 5.625.416 3.333-2.916 39.375H992.7l16.875-145.833h48.75l16.875 145.833h-34.583zm-18.75-28.333v-28.75h20.833v28.75h-20.833zM1113.322 3472.732c-12.292 0-21.459-3.334-27.917-10.209-6.458-6.875-9.792-18.333-10.208-34.375l31.666-1.25c.209 7.292.625 12.084 1.459 14.375.625 2.5 2.083 3.75 4.166 3.75 1.875 0 3.125-.833 3.959-2.291.625-1.459 1.041-3.125 1.041-5.209 0-3.75-1.041-7.291-2.708-10.416-1.875-3.125-4.375-6.459-7.292-9.792-3.125-3.333-6.458-6.875-10-10.833a87.856 87.856 0 01-15.833-20.625c-4.167-7.5-6.25-16.042-6.25-25.417 0-7.708 1.458-14.375 4.375-20s7.083-10.208 12.708-13.333c5.417-3.125 12.084-4.583 19.792-4.583 12.292 0 21.458 3.333 27.5 10.208 6.042 6.875 9.167 18.125 9.583 33.75l-31.25 1.25c-.208-6.667-.625-11.25-1.25-13.75-.833-2.5-2.083-3.75-3.958-3.75s-3.125.625-3.542 2.083c-.625 1.459-1.041 3.334-1.041 5.625 0 3.334 1.041 6.459 2.916 9.583 1.875 3.125 4.375 6.25 7.5 9.375s6.25 6.667 9.375 10.209c6.459 6.041 11.875 13.125 16.042 20.833 4.167 7.917 6.25 16.875 6.25 26.667 0 7.5-1.458 14.166-4.375 19.791-2.917 5.834-7.083 10.417-12.5 13.542-5.625 3.125-12.292 4.792-20.208 4.792zM1155.828 3324.607h33.75v52.083h10.834v-52.083h33.541v145.833h-33.541v-62.5h-10.834v62.5h-33.75v-145.833zM1263.535 3470.44v-29.583l20-32.5c3.958-6.459 7.292-12.709 10.208-18.75 2.917-6.042 5.209-11.459 6.875-16.459 1.459-5 2.292-9.374 2.292-12.916 0-3.125-.208-5.625-.833-7.083-.625-1.459-2.084-2.084-3.959-2.084-1.666 0-2.916.625-3.541 2.084-.625 1.458-1.042 3.958-1.042 7.083v8.541l-30.833-.833v-10.416c0-10.834 2.916-19.375 8.958-25.625s15-9.375 27.292-9.375c11.458 0 20.625 3.125 27.083 9.375 6.458 6.25 9.792 15.416 9.792 27.291 0 6.459-.834 13.125-2.709 20.208-2.083 7.084-4.583 14.375-7.916 21.667-3.334 7.5-7.292 14.792-11.667 22.083l-10.625 17.709h31.875v29.583h-71.25zM1381.238 3472.523c-8.75 0-16.041-1.458-21.875-4.583-6.041-3.125-10.416-7.083-13.125-12.292-2.916-5.208-4.375-10.625-4.375-16.666v-82.917c0-6.041 1.459-11.666 4.375-16.875 2.917-5 7.292-8.958 13.125-12.083 5.834-3.125 13.125-4.583 21.667-4.583 8.958 0 16.25 1.458 22.292 4.375 5.833 3.125 10.208 7.083 13.333 12.291 2.917 5.209 4.375 10.834 4.375 16.875v82.917c0 6.041-1.458 11.666-4.375 16.875-3.125 5.208-7.5 9.166-13.333 12.083-6.042 3.125-13.334 4.583-22.084 4.583zm.209-28.333c2.291 0 3.75-.625 4.583-1.875.625-1.25 1.042-2.917 1.042-5.208v-78.958c0-2.292-.417-3.959-1.042-5.417-.833-1.25-2.292-1.875-4.583-1.875-2.292 0-3.75.625-4.584 1.875-.833 1.458-1.25 3.125-1.25 5.417v78.958c0 2.291.417 3.958 1.25 5.208.834 1.25 2.292 1.875 4.584 1.875zM1427.495 3470.44v-29.583l20-32.5c3.958-6.459 7.292-12.709 10.208-18.75 2.917-6.042 5.209-11.459 6.875-16.459 1.459-5 2.292-9.374 2.292-12.916 0-3.125-.208-5.625-.833-7.083-.625-1.459-2.084-2.084-3.959-2.084-1.666 0-2.916.625-3.541 2.084-.625 1.458-1.042 3.958-1.042 7.083v8.541l-30.833-.833v-10.416c0-10.834 2.916-19.375 8.958-25.625s15-9.375 27.292-9.375c11.458 0 20.625 3.125 27.083 9.375 6.458 6.25 9.792 15.416 9.792 27.291 0 6.459-.834 13.125-2.709 20.208-2.083 7.084-4.583 14.375-7.916 21.667-3.334 7.5-7.292 14.792-11.667 22.083l-10.625 17.709h31.875v29.583h-71.25zM1545.198 3472.523c-8.75 0-16.041-1.458-21.875-4.583-6.041-3.125-10.416-7.083-13.125-12.292-2.916-5.208-4.375-10.625-4.375-16.666v-82.917c0-6.041 1.459-11.666 4.375-16.875 2.917-5 7.292-8.958 13.125-12.083 5.834-3.125 13.125-4.583 21.667-4.583 8.958 0 16.25 1.458 22.292 4.375 5.833 3.125 10.208 7.083 13.333 12.291 2.917 5.209 4.375 10.834 4.375 16.875v82.917c0 6.041-1.458 11.666-4.375 16.875-3.125 5.208-7.5 9.166-13.333 12.083-6.042 3.125-13.334 4.583-22.084 4.583zm.209-28.333c2.291 0 3.75-.625 4.583-1.875.625-1.25 1.042-2.917 1.042-5.208v-78.958c0-2.292-.417-3.959-1.042-5.417-.833-1.25-2.292-1.875-4.583-1.875-2.292 0-3.75.625-4.584 1.875-.833 1.458-1.25 3.125-1.25 5.417v78.958c0 2.291.417 3.958 1.25 5.208.834 1.25 2.292 1.875 4.584 1.875z"/>
</g>
</g>
</svg>
