<?xml version="1.0" encoding="utf-8"?>
<svg viewBox="102 56.26 7760.12 5093.843" xmlns="http://www.w3.org/2000/svg">
  <path fill="#9da0a6" d="M128.57 4359.81H7826.2v748.33H128.57z"/>
  <path fill="#fafbfc" fill-rule="nonzero" d="M382.06 4769.47l173.16-11 81.54 298.68H451.7l-43.06-175.9-26.57-111.78zm22-211.64H367.4v147.5h36.65c13.74 0 23.82-4.57 32.07-12.82 7.33-8.25 11-21.07 11-40.31v-42.15c0-19.24-3.67-32.06-11-40.3-8.25-8.25-18.33-11.92-32.07-11.92zm14.65 288.6h-50.39v210.72H190.58v-641.33h228.13c63.22 0 112.69 17.41 150.25 51.31 36.65 34.82 54.97 82.46 54.97 142.92v42.15c0 59.55-18.32 107.2-54.97 142-37.56 34.82-87.03 52.23-150.25 52.23zM1026.13 4905.98v151.17H673.41v-641.33h352.72V4567H859.4v84.3h155.75v144.75H859.4v109.94h166.74zM1304.65 5057.15h-232.7v-641.33h223.54c66.88 0 117.27 14.66 151.17 43.98 32.98 30.23 49.47 69.63 49.47 118.19v22.9c0 30.24-5.5 56.8-16.49 77.88-11 21.07-30.23 36.64-56.8 46.72 29.32 11 51.3 27.49 65.05 49.48 13.74 22.9 20.15 49.47 20.15 79.7v28.4c0 52.23-16.49 93.45-49.47 125.52-32.98 32.98-84.29 48.56-153.92 48.56zm-21.07-506.65h-34.81v114.52h34.81c13.74 0 23.82-3.66 30.23-10.99 6.42-7.33 9.17-19.24 9.17-35.73v-21.07c0-16.5-2.75-28.4-9.17-35.73-6.4-7.33-16.49-11-30.23-11zm1.83 371.97c16.5 0 28.4-4.58 35.73-13.74 7.33-8.25 11-21.99 11-41.23v-27.49c0-20.15-3.67-34.81-11-43.06-8.24-8.24-20.15-11.9-35.73-11.9h-36.64v137.42h36.64zM1803.05 5057.15l-21.07-172.24 2.75-14.66-2.75-18.33c-6.41-47.64-12.83-96.2-17.4-144.75-5.5-48.56-11-95.28-15.58-141.1h-2.75a4480.73 4480.73 0 01-16.5 141.1c-6.4 48.56-12.82 97.11-19.23 144.75l-2.75 20.16 2.75 12.83-20.16 172.24H1510.8l113.6-641.33h250.12l114.53 641.33h-185.99zm-120.02-114.52V4799.7h122.77v142.93h-122.77zM2208.91 5069.98c-66.88 0-120.02-16.5-158.5-50.4-38.47-32.98-59.55-85.2-64.13-155.74l174.08-6.42c.91 27.49 4.58 46.73 11.9 57.72 7.34 11 18.33 16.5 32.99 16.5 12.83 0 22.9-3.67 29.32-11 5.5-7.33 9.16-16.5 9.16-28.4 0-15.58-4.58-27.49-13.74-37.57-10.08-9.16-22.9-18.32-39.4-27.48-17.4-9.16-36.65-19.24-58.64-31.15-46.72-25.65-82.45-55.89-105.36-89.79-22.9-33.9-34.81-73.3-34.81-117.27 0-35.73 8.25-66.88 24.74-95.28 15.57-28.4 39.4-50.39 70.54-66.88 31.15-15.58 69.63-23.82 114.52-23.82 66.88 0 118.2 16.49 152.09 48.56 33.9 32.06 53.14 83.37 57.72 153l-169.5 7.33c-.91-24.74-4.58-42.15-10.99-53.14-6.41-11-15.57-16.5-29.32-16.5-10.07 0-18.32 2.76-23.82 9.17s-8.24 15.57-8.24 25.65c0 13.74 5.5 25.65 16.49 35.73 11 10.08 25.65 20.16 43.06 28.4 17.4 8.25 34.81 18.33 53.14 28.4 46.72 23.83 81.54 53.14 105.36 87.04 22.9 34.82 34.81 74.21 34.81 117.27 0 35.73-8.24 68.72-25.65 98.03-17.4 30.24-41.23 54.06-73.3 71.47-32.06 17.4-69.62 26.57-114.52 26.57zM2809.01 4905.98v151.17H2456.3v-641.33H2809V4567h-166.74v84.3h155.75v144.75h-155.75v109.94H2809zM3290 5069.98c-66.88 0-120.02-16.5-158.5-50.4-38.47-32.98-59.55-85.2-64.13-155.74l174.08-6.42c.91 27.49 4.58 46.73 11.9 57.72 7.34 11 18.33 16.5 32.99 16.5 12.83 0 22.9-3.67 29.32-11 5.5-7.33 9.16-16.5 9.16-28.4 0-15.58-4.58-27.49-13.74-37.57-10.08-9.16-22.9-18.32-39.4-27.48-17.4-9.16-36.65-19.24-58.64-31.15-46.72-25.65-82.45-55.89-105.36-89.79-22.9-33.9-34.81-73.3-34.81-117.27 0-35.73 8.24-66.88 24.74-95.28 15.57-28.4 39.4-50.39 70.54-66.88 31.15-15.58 69.63-23.82 114.52-23.82 66.88 0 118.2 16.49 152.09 48.56 33.9 32.06 53.14 83.37 57.72 153l-169.5 7.33c-.91-24.74-4.58-42.15-10.99-53.14-6.41-11-15.57-16.5-29.32-16.5-10.07 0-18.32 2.76-23.82 9.17s-8.24 15.57-8.24 25.65c0 13.74 5.5 25.65 16.49 35.73 11 10.08 25.65 20.16 43.06 28.4 17.4 8.25 34.81 18.33 53.14 28.4 46.72 23.83 81.54 53.14 105.36 87.04 22.9 34.82 34.81 74.21 34.81 117.27 0 35.73-8.24 68.72-25.65 98.03-17.4 30.24-41.23 54.06-73.3 71.47-32.06 17.4-69.62 26.57-114.52 26.57zM3767.33 4873h-47.64v184.15h-182.32v-641.33h229.96c44.9 0 82.46 8.25 112.69 25.66 29.32 17.4 51.3 40.3 66.88 69.63 14.66 29.31 21.99 63.21 21.99 101.7v64.12c0 37.57-7.33 71.47-22.9 100.78-15.58 30.24-38.49 53.14-67.8 69.63-30.24 17.41-66.88 25.66-110.86 25.66zm-16.5-315.17h-34.8V4731h34.8c15.58 0 26.58-4.58 33.9-13.74 6.42-9.17 10.08-23.82 10.08-44.9v-54.97c0-21.07-3.66-36.64-10.07-45.8-7.33-9.17-18.33-13.75-33.9-13.75zM4336.27 4905.98v151.17h-326.15v-641.33h185.98v490.16h140.17zM4637.7 5057.15l-21.08-172.24 2.75-14.66-2.75-18.33c-6.41-47.64-12.83-96.2-17.4-144.75-5.5-48.56-11-95.28-15.58-141.1h-2.75a4480.73 4480.73 0 01-16.5 141.1c-6.4 48.56-12.82 97.11-19.23 144.75l-2.75 20.16 2.75 12.83-20.16 172.24h-179.57l113.6-641.33h250.13l114.52 641.33h-185.99zm-120.03-114.52V4799.7h122.77v142.93h-122.77zM5043.56 5069.98c-66.88 0-120.02-16.5-158.5-50.4-38.48-32.98-59.55-85.2-64.13-155.74l174.07-6.42c.92 27.49 4.59 46.73 11.91 57.72 7.33 11 18.33 16.5 32.99 16.5 12.82 0 22.9-3.67 29.31-11 5.5-7.33 9.17-16.5 9.17-28.4 0-15.58-4.58-27.49-13.75-37.57-10.07-9.16-22.9-18.32-39.4-27.48-17.4-9.16-36.64-19.24-58.63-31.15-46.72-25.65-82.45-55.89-105.36-89.79-22.9-33.9-34.81-73.3-34.81-117.27 0-35.73 8.24-66.88 24.73-95.28 15.58-28.4 39.4-50.39 70.55-66.88 31.15-15.58 69.63-23.82 114.52-23.82 66.88 0 118.19 16.49 152.09 48.56 33.9 32.06 53.14 83.37 57.72 153l-169.5 7.33c-.91-24.74-4.58-42.15-10.99-53.14-6.41-11-15.57-16.5-29.32-16.5-10.08 0-18.32 2.76-23.82 9.17s-8.24 15.57-8.24 25.65c0 13.74 5.5 25.65 16.49 35.73 11 10.08 25.65 20.16 43.06 28.4 17.4 8.25 34.81 18.33 53.14 28.4 46.72 23.83 81.54 53.14 105.36 87.04 22.9 34.82 34.81 74.21 34.81 117.27 0 35.73-8.24 68.72-25.65 98.03-17.4 30.24-41.23 54.06-73.3 71.47-32.06 17.4-69.63 26.57-114.52 26.57zM5290.93 4415.82h182.32v217.14h82.45v-217.14h183.24v641.33H5555.7v-270.27h-82.45v270.27h-182.32v-641.33zM5907.51 5057.15V4906.9l129.18-142.01c22.9-26.57 42.15-49.48 56.8-69.63 13.75-20.16 24.74-38.48 31.16-54.97 6.41-16.5 9.16-31.15 9.16-43.98 0-13.74-2.75-25.65-7.33-34.81-5.5-9.17-14.66-13.75-27.49-13.75-12.82 0-21.98 4.58-26.57 13.75-4.58 9.16-7.32 21.07-7.32 34.81v34.82l-167.67-3.67v-35.73c0-61.38 17.41-108.1 51.31-140.17 33.9-32.07 86.12-48.56 154.83-48.56 68.72 0 120.94 16.49 155.75 49.47 33.9 32.98 51.31 79.7 51.31 139.26 0 27.49-3.66 54.05-11 78.8-7.32 24.73-19.23 50.38-35.72 76.95-16.5 26.57-38.48 55.89-66.89 87.95l-61.38 71.47h183.24v150.25H5907.5zM6581.82 5069.98c-51.3 0-94.37-8.25-127.35-26.57-34.82-17.41-59.55-40.32-76.04-69.63-17.41-28.4-25.66-60.47-25.66-94.37v-285.85c0-34.81 8.25-66.88 25.66-95.28 16.49-28.4 41.22-52.22 75.12-69.63 33.9-17.4 76.04-25.65 126.43-25.65 52.23 0 95.29 8.24 129.19 25.65 33.9 17.4 58.63 41.23 76.04 69.63 16.49 28.4 24.74 60.47 24.74 95.28v285.85c0 34.81-8.25 66.88-24.74 95.28-17.4 28.4-42.15 51.3-76.04 68.72-33.9 18.32-76.05 26.57-127.35 26.57zm0-145.68c17.4 0 29.31-4.58 35.73-14.66 6.41-9.16 9.16-21.98 9.16-38.48v-268.44c0-17.4-2.75-30.23-9.16-40.3-6.42-9.17-18.33-13.75-35.73-13.75-17.41 0-29.32 4.58-35.73 13.74-6.42 10.08-9.17 22.9-9.17 40.31v268.44c0 16.5 2.75 29.32 9.17 38.48 6.4 10.08 18.32 14.66 35.73 14.66zM6857.59 5057.15V4906.9l129.18-142.01c22.9-26.57 42.14-49.48 56.8-69.63 13.75-20.16 24.74-38.48 31.15-54.97 6.42-16.5 9.16-31.15 9.16-43.98 0-13.74-2.74-25.65-7.32-34.81-5.5-9.17-14.66-13.75-27.49-13.75-12.83 0-21.99 4.58-26.57 13.75-4.58 9.16-7.33 21.07-7.33 34.81v34.82l-167.66-3.67v-35.73c0-61.38 17.4-108.1 51.3-140.17 33.9-32.07 86.13-48.56 154.84-48.56 68.71 0 120.94 16.49 155.75 49.47 33.9 32.98 51.3 79.7 51.3 139.26 0 27.49-3.66 54.05-10.99 78.8-7.33 24.73-19.24 50.38-35.73 76.95s-38.48 55.89-66.88 87.95l-61.38 71.47h183.23v150.25H6857.6zM7531.9 5069.98c-51.31 0-94.37-8.25-127.36-26.57-34.81-17.41-59.55-40.32-76.04-69.63-17.4-28.4-25.65-60.47-25.65-94.37v-285.85c0-34.81 8.24-66.88 25.65-95.28 16.5-28.4 41.23-52.22 75.13-69.63 33.9-17.4 76.04-25.65 126.43-25.65 52.22 0 95.28 8.24 129.18 25.65 33.9 17.4 58.64 41.23 76.04 69.63 16.5 28.4 24.74 60.47 24.74 95.28v285.85c0 34.81-8.24 66.88-24.74 95.28-17.4 28.4-42.14 51.3-76.04 68.72-33.9 18.32-76.04 26.57-127.35 26.57zm0-145.68c17.4 0 29.31-4.58 35.72-14.66 6.42-9.16 9.17-21.98 9.17-38.48v-268.44c0-17.4-2.75-30.23-9.17-40.3-6.4-9.17-18.32-13.75-35.73-13.75-17.4 0-29.31 4.58-35.73 13.74-6.41 10.08-9.16 22.9-9.16 40.31v268.44c0 16.5 2.75 29.32 9.16 38.48 6.42 10.08 18.33 14.66 35.73 14.66z"/>
  <g transform="matrix(906.225037, 0, 0, 906.225037, 2816.129883, 5059.47998)">
    <clipPath id="a">
      <path d="M0-.72h.29v.74H0z"/>
    </clipPath>
    <g clip-path="url(#a)">
      <path fill="#fafbfc" fill-rule="nonzero" d="M.28-.72L.17.1H0l.11-.82h.16z"/>
    </g>
  </g>
  <g>
    <path fill="#d72827" fill-rule="nonzero" d="M623.22 1599.57h-355.9V382.32H113.26V78H777.3v304.32H623.22v1217.25zM1428.33 1295.26v304.31H825.04V78h603.3v304.32H1183.1V647.5h219.18v291.28h-219.18v356.48h245.22zM1482.59 1275.7V404.05c0-63.03 13.02-121.72 41.23-173.9 28.21-52.16 69.44-93.46 128.04-126.06 56.42-32.61 125.86-47.83 210.5-47.83 80.3 0 147.56 15.22 201.82 45.65 54.25 32.6 95.48 73.9 123.7 126.07 28.2 52.17 41.23 110.86 41.23 173.9v180.41l-310.33 10.87v-173.9c0-23.9-4.34-43.47-10.85-54.33-6.51-10.87-19.53-15.22-36.9-15.22-19.52 0-30.37 4.35-36.88 15.22-8.68 10.86-10.85 30.43-10.85 54.34v834.69c0 23.9 2.17 41.3 8.68 52.17 4.34 10.87 17.36 17.39 36.89 17.39s32.55-6.52 39.06-17.4c6.51-10.86 10.85-28.25 10.85-52.16v-167.37l310.33 6.52v182.59c0 60.86-13.02 117.37-41.24 169.54-28.2 54.34-67.27 95.64-121.52 126.07-54.26 30.44-123.7 45.65-204 45.65-84.63 0-156.24-15.21-212.66-47.82-56.43-30.43-97.66-71.73-125.87-123.9-28.21-52.17-41.23-108.68-41.23-169.54zM2287.7 78h338.54v549.94h95.48V78h338.54v1521.57h-338.54V945.3h-95.48v654.27H2287.7V78zM3138.38 1599.57V78h312.5l143.23 708.62h2.17c-4.34-41.3-8.68-84.77-10.85-130.42-2.17-45.65-4.34-89.12-4.34-132.6V78h303.81v1521.57h-314.67l-141.05-697.75H3427c4.34 43.48 8.68 89.12 10.85 132.6 2.17 45.64 4.34 91.3 4.34 134.77v430.38h-303.82zM4347.13 1621.3c-86.8 0-158.41-15.2-217-47.81-58.6-30.43-102-71.73-130.21-123.9-28.21-52.17-43.4-108.68-43.4-169.55v-882.5c0-63.05 15.19-119.56 43.4-171.73 28.2-50 71.61-91.3 130.2-123.9 58.6-30.43 130.21-45.65 217.01-45.65 86.8 0 158.42 15.22 217.02 45.65 58.59 32.6 102 73.9 130.2 123.9 28.21 52.17 43.4 108.68 43.4 171.72v882.51c0 63.04-15.19 119.55-43.4 169.55-28.2 52.17-71.61 93.47-128.03 123.9-58.6 32.6-130.21 47.82-219.19 47.82zm0-291.26c21.7 0 36.9-6.52 43.4-17.4 6.52-10.86 8.69-28.25 8.69-52.16V417.09c0-23.9-2.17-41.3-8.68-52.16-6.51-10.87-21.7-17.4-43.4-17.4-19.54 0-32.56 6.53-39.07 17.4-8.68 10.86-10.85 28.25-10.85 52.16v843.39c0 23.91 2.17 41.3 10.85 52.17 6.51 10.87 19.53 17.39 39.06 17.39zM5367.1 1295.26v304.31h-557.72V78h358.07v1217.26h199.65zM5792.45 1621.3c-86.8 0-158.42-15.2-217.02-47.81-58.59-30.43-102-71.73-130.2-123.9-28.21-52.17-43.4-108.68-43.4-169.55v-882.5c0-63.05 15.19-119.56 43.4-171.73 28.2-50 71.61-91.3 130.2-123.9 58.6-30.43 130.21-45.65 217.02-45.65 86.8 0 158.41 15.22 217 45.65 58.6 32.6 102 73.9 130.21 123.9 28.21 52.17 43.4 108.68 43.4 171.72v882.51c0 63.04-15.19 119.55-43.4 169.55-28.2 52.17-71.61 93.47-128.03 123.9-58.6 32.6-130.21 47.82-219.18 47.82zm0-291.26c21.7 0 36.89-6.52 43.4-17.4 6.5-10.86 8.68-28.25 8.68-52.16V417.09c0-23.9-2.17-41.3-8.68-52.16-6.51-10.87-21.7-17.4-43.4-17.4-19.54 0-32.56 6.53-39.07 17.4-8.68 10.86-10.85 28.25-10.85 52.16v843.39c0 23.91 2.17 41.3 10.85 52.17 6.51 10.87 19.53 17.39 39.07 17.39zM6545.47 1621.3c-56.42 0-106.33-15.2-151.9-47.81-45.58-30.43-80.3-71.73-106.34-123.9-26.04-50-39.06-106.51-39.06-169.55V401.88c0-63.04 15.19-121.73 43.4-173.9 28.21-49.99 71.61-91.29 130.2-123.9 58.6-32.6 130.21-47.82 214.85-47.82 84.63 0 156.25 15.22 210.5 45.65 54.25 32.6 95.48 73.9 123.7 123.9 26.04 52.17 39.06 108.68 39.06 171.72v145.64l-325.52 8.7V412.74c0-21.74-4.34-39.13-10.85-50-6.51-10.87-19.53-15.21-36.9-15.21-19.52 0-30.37 6.52-36.88 17.39-8.68 10.86-10.85 28.25-10.85 50v847.72c0 23.91 4.34 39.13 13.02 50 6.5 10.87 19.53 17.39 34.72 17.39 19.53 0 34.72-6.52 43.4-17.4 6.51-10.86 10.85-28.25 10.85-52.16l143.23-4.35c0 115.2-23.87 204.33-73.78 267.36-49.92 65.21-121.53 97.82-214.85 97.82zm466.58-21.73h-240.88l-30.39-186.93-49.9-45.65v-345.61h-49.92V738.8h371.09v860.77zM7242.08 1599.57v-426.04L7003.37 78h355.9l43.4 339.1c6.5 36.95 10.85 76.07 15.19 115.2 2.17 41.3 4.34 80.43 6.5 119.55h2.18c2.17-39.12 6.51-78.25 10.85-119.55 2.17-39.13 6.51-78.25 10.85-115.2L7489.47 78h323.35l-234.37 1075.97v445.6h-336.37zM623.22 3194.46h-355.9V1977.21H113.26v-304.32H777.3v304.32H623.22v1217.25zM1202.64 3216.2c-86.8 0-158.42-15.22-217.01-47.82-58.6-30.43-102-71.73-130.2-123.9-28.22-52.17-43.41-108.68-43.41-169.55v-882.5c0-63.05 15.19-119.56 43.4-171.73 28.21-50 71.61-91.3 130.2-123.9 58.6-30.43 130.21-45.65 217.02-45.65 86.8 0 158.42 15.22 217.01 45.65 58.6 32.6 102 73.9 130.2 123.9 28.22 52.17 43.4 108.68 43.4 171.72v882.51c0 63.04-15.18 119.55-43.4 169.55-28.2 52.17-71.6 93.47-128.03 123.9-58.6 32.6-130.2 47.82-219.18 47.82zm0-291.27c21.7 0 36.9-6.52 43.4-17.4 6.51-10.86 8.68-28.25 8.68-52.16v-843.39c0-23.9-2.17-41.3-8.68-52.16-6.5-10.87-21.7-17.4-43.4-17.4-19.53 0-32.55 6.53-39.06 17.4-8.68 10.86-10.85 28.25-10.85 52.16v843.39c0 23.91 2.17 41.3 10.85 52.17 6.5 10.87 19.53 17.39 39.06 17.39zM1664.87 3194.46V1672.9h388.45c84.64 0 156.25 15.22 214.84 43.47 58.6 30.44 102 71.74 132.38 123.9 28.21 54.35 43.4 115.2 43.4 186.94v812.95c0 106.51-34.72 193.46-104.16 256.5-69.45 65.2-164.93 97.81-286.46 97.81h-388.45zm379.77-1230.3h-41.23v939.03h41.23c19.53 0 32.55-6.52 43.4-17.39 10.86-10.87 15.2-32.6 15.2-65.21v-776c0-30.43-4.34-52.17-13.03-63.04-10.85-10.87-26.04-17.39-45.57-17.39zM2925.7 3194.46l-26.04-410.82 4.34-36.95-4.34-58.7c-6.5-119.55-15.19-239.1-21.7-365.17-8.68-123.9-15.19-239.1-19.53-347.79h-4.34c-6.51 108.69-13.02 223.89-21.7 347.79-8.68 126.07-17.36 245.62-23.87 365.18l-2.17 58.69 2.17 36.95-26.04 410.82H2461.3l158.42-1521.57h492.61l160.6 1521.57H2925.7zm-180.12-299.96v-293.45h206.16v293.45h-206.16zM3422.66 3194.46v-426.04L3183.95 1672.9h355.9l43.4 339.1c6.5 36.95 10.85 76.07 15.19 115.2 2.17 41.3 4.34 80.42 6.5 119.55h2.18c2.17-39.13 6.5-78.25 10.85-119.55 2.17-39.13 6.5-78.25 10.85-115.2l41.23-339.1h323.35l-234.37 1075.97v445.6h-336.37z"/>
    <path fill="#23242f" fill-rule="nonzero" d="M4281.04 2726.63l251.5-12.88 115.76 472.34h-268.65l-61.45-277.68-37.16-181.78zm32.87-330.64h-48.58v243.33h48.58c18.58 0 32.87-7.16 42.87-20.04 10-12.88 15.72-34.35 15.72-64.41v-77.3c0-30.05-5.72-50.09-15.72-62.97-10-12.88-24.3-18.61-42.87-18.61zm17.15 452.3h-65.73v337.8h-258.65V2184.15h324.38c92.88 0 167.2 25.77 220.07 78.73 52.87 52.95 80.02 123.1 80.02 211.83v81.59c0 88.74-27.15 158.88-80.02 211.84-52.88 52.96-127.19 80.15-220.07 80.15zM5011.25 3204.7c-72.88 0-134.33-12.88-182.92-38.65-48.58-25.76-84.3-60.11-108.6-101.62-25.72-41.51-37.15-87.31-37.15-137.41v-483.8c0-50.1 11.43-97.33 37.15-138.84 24.3-41.5 60.02-74.43 108.6-100.19 48.59-25.76 108.6-38.65 181.49-38.65 72.88 0 134.32 12.89 184.34 37.22 48.58 25.76 84.3 60.12 108.6 101.62 24.3 41.51 35.73 88.75 35.73 138.84v483.8c0 50.1-11.44 97.33-35.73 138.84-24.3 41.5-60.02 75.86-108.6 100.2-48.59 25.76-110.03 38.64-182.91 38.64zm0-217.57c24.29 0 40-5.72 48.58-20.03 7.15-12.89 11.43-30.06 11.43-52.96V2456.1c0-22.9-4.28-41.51-11.43-54.4-8.57-12.88-24.3-18.6-48.58-18.6-24.3 0-40.02 5.72-47.16 18.6-8.57 12.89-12.86 31.5-12.86 54.4v458.03c0 22.9 4.29 40.07 12.86 52.96 7.14 14.3 22.86 20.03 47.16 20.03zM5735.74 3186.1h-331.52V2184.14h317.23c98.6 0 172.91 21.47 221.5 65.84 47.16 44.37 71.45 101.63 71.45 174.63v57.25c0 44.37-7.15 83.02-22.87 114.5-15.71 31.5-42.87 54.4-82.88 70.14 42.87 17.18 74.31 41.51 92.89 74.43 18.57 32.92 28.58 73 28.58 117.37v70.14c0 75.86-24.3 138.84-71.45 186.07-47.16 47.24-121.47 71.57-222.93 71.57zm-27.15-798.7h-45.72v190.37h45.72c17.15 0 30.01-5.72 40.02-15.74 8.57-10.02 12.86-28.63 12.86-54.4v-52.95c0-24.34-4.3-41.51-12.86-51.53-10-10.02-22.87-15.75-40.02-15.75zm2.86 595.44c21.44 0 37.16-5.72 47.16-18.6 10-12.89 14.29-32.93 14.29-61.55v-65.85c0-30.05-4.29-50.1-14.3-62.98-10-12.88-25.71-18.6-47.15-18.6h-48.58v227.58h48.58zM6590.3 2959.94v226.15h-505.86V2184.15h505.87v226.15h-231.5v143.14h214.35V2771h-214.35v188.94h231.5zM6927.54 2726.63l251.5-12.88 115.76 472.34h-268.65l-61.45-277.68-37.16-181.78zm32.87-330.64h-48.58v243.33h48.58c18.58 0 32.87-7.16 42.87-20.04 10-12.88 15.72-34.35 15.72-64.41v-77.3c0-30.05-5.72-50.09-15.72-62.97-10-12.88-24.3-18.61-42.87-18.61zm17.15 452.3h-65.73v337.8h-258.65V2184.15h324.38c92.88 0 167.2 25.77 220.07 78.73 52.87 52.95 80.02 123.1 80.02 211.83v81.59c0 88.74-27.15 158.88-80.02 211.84-52.88 52.96-127.19 80.15-220.07 80.15zM7720.65 3186.1h-277.22v-775.8h-141.48v-226.15h560.17v226.15h-141.47v775.8z"/>
    <path fill="#ffca00" fill-rule="nonzero" d="M353.62 3791.4l-18.83-141.87 2.26-12.08-2.26-14.34a2775.75 2775.75 0 01-15.82-117.72c-4.52-39.24-9.04-77.73-12.81-116.21h-3.01a3238.34 3238.34 0 01-13.57 116.21c-6.02 40-12.05 79.24-17.32 117.72l-2.26 16.6 2.26 9.82-18.09 141.87H102l98.7-528.25h210.94l99.45 528.25H353.62zm-103.97-92.82v-119.99h104.73v119.99H249.65zM825.08 3643.49H782.9v147.9h-155.2v-528.24h197.4c38.41 0 70.06 6.8 95.67 21.13 24.86 14.34 44.45 33.96 57.26 58.87 12.05 24.9 18.84 52.82 18.84 85.27v50.56c0 31.7-6.79 59.62-19.6 84.52-13.55 24.9-33.14 44.52-58 58.86-25.62 14.34-57.26 21.13-94.18 21.13zm-14.31-260.35h-30.9v140.36h30.9c12.8 0 22.6-3.77 29.38-11.32 6.03-7.54 9.04-19.62 9.04-36.97v-43.77c0-17.36-3.01-30.19-9.04-37.73-6.78-6.8-16.58-10.57-29.38-10.57zM1227.23 3791.4l-18.83-141.87 2.26-12.08-2.26-14.34a2775.75 2775.75 0 01-15.83-117.72c-4.52-39.24-9.04-77.73-12.8-116.21h-3.02a3238.34 3238.34 0 01-13.56 116.21c-6.02 40-12.05 79.24-17.33 117.72l-2.26 16.6 2.26 9.82-18.08 141.87H975.6l98.7-528.25h210.94l99.45 528.25h-157.46zm-103.97-92.82v-119.99h104.72v119.99h-104.72zM1584.17 3801.96c-45.2 0-82.12-7.54-110-23.4-27.87-15.08-48.21-35.46-61.02-61.12-12.8-24.9-19.59-52.82-19.59-82.25v-372.04h155.2v359.21c0 15.85 3.02 28.68 8.3 36.98 4.51 8.3 14.3 12.83 27.87 12.83 14.31 0 24.1-4.53 29.38-12.83 5.27-8.3 7.53-21.13 7.53-36.98v-359.2h152.19v372.03c0 30.18-6.03 58.1-18.84 83-12.8 25.67-33.14 46.04-61.02 61.13-27.88 15.1-64.8 22.64-110 22.64zM1810.78 3635.19V3418.6c0-30.19 6.78-58.1 21.1-83.01 14.3-24.9 34.65-45.28 63.28-60.37 27.12-15.1 62.53-22.64 104.72-22.64 40.68 0 75.34 7.55 103.22 21.88 27.87 14.34 48.21 33.96 62.53 58.87 14.31 24.9 21.1 52.07 21.1 81.5v42.26l-144.66 4.52v-35.46c0-15.1-3.01-27.17-8.29-35.47-5.27-8.3-15.06-12.08-29.38-12.08-14.31 0-24.86 3.78-29.38 12.08-5.28 8.3-8.29 20.37-8.29 35.47v201.48c0 15.1 3.01 26.41 8.29 34.72 4.52 8.3 15.07 12.82 29.38 12.82 14.32 0 24.11-4.52 29.38-12.82 5.28-8.3 8.3-19.62 8.3-34.72v-31.7l144.64 3.03v40c0 29.42-6.78 56.59-21.1 81.5-14.3 24.9-34.65 45.27-62.52 59.6-27.88 14.35-61.78 21.9-101.71 21.9-42.95 0-78.36-7.55-106.23-23.4-27.88-15.1-48.97-35.47-63.29-61.13-14.31-24.9-21.1-52.82-21.1-82.25zM2219.7 3263.15h158.22v528.25H2219.7zM2655.75 3791.4H2496.8v-401.47h-87.4v-126.78h333.76v126.78h-87.4v401.47zM2866.54 3791.4v-149.42l-119.8-378.83h161.99l23.35 109.43c3.77 15.84 6.78 33.2 9.8 51.31 3.01 18.87 5.27 38.49 7.53 57.35h.75c2.26-18.86 4.52-38.48 7.54-57.35 3.01-18.11 6.03-35.47 9.8-51.31l23.35-109.43h148.42l-117.53 369.77v158.48h-155.2zM3431.42 3801.96c-43.7 0-79.86-7.54-109.25-22.64-29.38-14.33-50.47-33.95-64.79-58.86-14.31-24.9-21.85-51.31-21.85-80.74v-224.88c0-29.43 7.54-56.6 21.85-81.5 14.32-24.15 35.41-43.77 64.8-58.87 28.62-14.33 64.79-21.88 107.73-21.88 44.45 0 80.61 7.55 110 21.88 29.38 14.34 50.47 33.96 65.54 58.87 14.32 24.9 21.1 52.07 21.1 81.5v224.88c0 29.43-6.78 56.6-21.1 81.5-15.07 24.9-36.16 44.52-64.79 58.86-29.38 14.34-65.55 21.88-109.24 21.88zm0-122.25c15.82 0 26.37-4.53 31.64-12.83 5.27-7.54 7.53-19.62 7.53-33.96v-210.54c0-15.1-2.26-27.16-7.53-35.47-5.27-8.3-15.82-12.07-31.64-12.07s-26.37 3.77-31.65 12.07c-5.27 8.3-8.28 20.38-8.28 35.47v210.54c0 14.34 3.01 26.42 8.28 33.96 5.28 8.3 15.83 12.83 31.65 12.83zM3823.77 3791.4h-157.46v-528.25h287.05v126.78h-129.59v95.09h120.55v126.78h-120.55v179.6z"/>
    <path fill="#23242f" fill-rule="nonzero" d="M4284.42 4306.34c-53.93 0-103.5-13.14-147.22-42.34-43.73-26.28-78.71-64.24-103.5-110.96-24.78-45.27-37.9-96.37-37.9-150.39v-454.08c0-54.02 13.12-105.12 40.82-150.38 27.7-45.26 67.05-83.22 120.99-110.97 53.93-27.74 119.52-40.88 198.24-40.88 83.08 0 151.6 13.14 202.61 40.88 51.02 27.75 88.92 62.79 113.7 106.59 24.78 45.26 36.44 93.44 36.44 146v55.49l-281.33 7.3v-51.1c0-21.9-5.83-40.89-16.03-54.03-10.2-13.14-29.15-18.98-53.93-18.98-23.33 0-40.82 7.3-51.02 20.44-11.66 14.6-17.5 35.04-17.5 61.32v433.64c0 24.82 5.84 45.26 18.96 59.86 13.11 14.6 30.6 21.9 52.47 21.9 24.78 0 42.27-7.3 55.4-23.36 11.65-16.06 17.48-36.5 17.48-64.24l137.02 2.92c0 99.28-24.78 176.67-74.34 232.15-51.01 55.48-120.98 83.22-211.36 83.22zm425.64-17.52h-214.28l-23.32-169.37-39.36-56.94v-159.14h-74.34v-204.41h351.3v589.86zM5090.18 3830.36l275.5-17.52 129.73 475.98h-294.45l-68.5-280.33-42.28-178.13zm34.98-337.27h-58.3v235.07h58.3c21.87 0 37.9-7.3 51.02-20.44 11.66-13.14 17.5-33.58 17.5-64.24v-67.16c0-30.67-5.84-51.1-17.5-64.25-13.12-13.14-29.15-18.98-51.02-18.98zm23.33 459.92h-80.17v335.81h-282.79V3266.78h362.96c100.58 0 179.29 27.74 239.05 81.77 58.31 55.48 87.46 131.4 87.46 227.77v67.16c0 94.9-29.15 170.82-87.46 226.3-59.76 55.49-138.47 83.23-239.05 83.23zM5554.84 3266.78h306.1v1022.04h-306.1zM5937.9 4288.82V3266.78h379l53.93 360.64c7.28 36.5 13.11 74.46 18.94 110.96 5.84 37.96 10.2 75.92 14.58 113.88h2.92c4.37-37.96 10.2-75.92 16.03-113.88 5.83-36.5 11.66-74.46 17.5-110.96l55.38-360.64h348.38v1022.04h-272.58v-365.01c0-37.96 1.46-75.93 4.38-113.89 1.45-36.5 4.37-74.46 7.28-110.96h-1.45l-34.99 192.73-68.5 397.13h-195.33l-68.51-401.51-17.5-96.37c-5.83-30.66-11.66-62.78-16.03-94.9h-4.37c4.37 36.5 7.28 74.46 8.74 112.42 1.46 39.42 2.92 77.39 2.92 115.35v365.01H5937.9zM6927.3 4288.82V3266.78h379l53.93 360.64c7.3 36.5 13.12 74.46 18.95 110.96 5.83 37.96 10.2 75.92 14.58 113.88h2.91c4.38-37.96 10.2-75.92 16.04-113.88 5.83-36.5 11.66-74.46 17.49-110.96l55.4-360.64h348.37v1022.04H7561.4v-365.01c0-37.96 1.46-75.93 4.37-113.89 1.46-36.5 4.38-74.46 7.3-110.96h-1.47l-34.98 192.73-68.51 397.13h-195.33l-68.5-401.51-17.5-96.37c-5.83-30.66-11.66-62.78-16.03-94.9h-4.38c4.38 36.5 7.3 74.46 8.75 112.42 1.46 39.42 2.91 77.39 2.91 115.35v365.01h-250.71z"/>
  </g>
  <g>
    <path fill="#ffca00" fill-rule="nonzero" d="M121.02 3902.23h91.88v378.96h-91.88zM229.12 4281.2v-378.97h77.83l35.67 176.5h.54a563.35 563.35 0 01-2.7-32.5c-.55-11.36-1.09-22.19-1.09-33.01v-110.99h75.67v378.96h-78.37l-35.13-173.78H301a679.45 679.45 0 012.7 33.03c.54 11.37 1.08 22.73 1.08 33.56v107.2h-75.66zM553.94 4281.2h-88.63v-303.17h-38.38v-75.8h165.39v75.8h-38.38v303.16zM754.46 4205.4v75.8H604.21v-378.97h150.25v75.8H693.4v66.04h54.59v72.55h-54.6v88.78h61.08zM842.02 4286.6c-14.05 0-26.48-3.78-37.83-11.9-11.35-7.58-20-17.87-26.49-30.86-6.48-12.45-9.73-26.53-9.73-42.23V3982.9c0-15.7 3.79-30.32 10.81-43.31 7.03-12.45 17.84-22.74 32.43-30.86 14.6-8.12 32.43-11.9 53.51-11.9s38.91 3.78 52.43 11.36c13.5 8.12 23.78 18.4 30.8 30.86 6.49 13 9.73 27.07 9.73 42.77v36.27l-81.07 2.16v-34.64c0-5.42-1.08-9.75-2.7-12.46-1.62-2.7-4.87-3.79-9.19-3.79-4.86 0-7.57 1.63-9.19 4.34-2.16 2.7-2.7 7.03-2.7 12.45v211.13c0 5.96 1.08 9.74 3.24 12.45 1.62 2.7 4.87 4.33 8.65 4.33 4.86 0 8.65-1.62 10.81-4.33 1.62-2.7 2.7-7.04 2.7-13l35.67-1.07c0 28.69-5.94 50.88-18.37 66.58-12.43 16.25-30.27 24.37-53.51 24.37zm116.2-5.4h-59.99l-7.57-46.57-12.43-11.36v-86.08H865.8v-70.38h92.42v214.38zM1057.67 4098.21l76.75-1.62 33.51 184.6h-83.77L1067.4 4174l-9.73-75.79zm9.73-126.14h-10.27v105.03h10.27c4.86 0 8.65-2.71 11.35-8.12 2.16-4.88 3.24-13.54 3.24-25.45v-40.06c0-11.37-1.08-19.49-3.24-24.36-2.7-4.87-6.49-7.04-11.35-7.04zm2.7 172.7h-14.05v136.42h-80v-378.96h94.05c30.81 0 54.05 9.2 69.72 27.07 15.68 18.41 23.79 42.23 23.79 71.46v44.4c0 29.23-8.11 53.05-23.79 71.46-16.21 18.94-39.45 28.15-69.72 28.15zM1182.52 3902.23h91.88v378.96h-91.88zM1410.06 4281.2h-88.63v-303.17h-38.38v-75.8h165.39v75.8h-38.38v303.16zM1508.97 4281.2v-106.12l-59.45-272.85h88.64l10.8 84.46c1.63 9.2 2.71 18.95 3.8 28.7.53 10.28 1.07 20.02 1.61 29.77h.54c.54-9.75 1.63-19.5 2.7-29.78.55-9.74 1.63-19.49 2.7-28.7l10.28-84.45h80.53l-58.37 267.98v110.98h-83.78zM1848.4 4281.2l-9.73-18.41c-8.11 7.57-16.76 13.53-26.49 17.86-9.73 4.33-20.54 6.5-31.89 6.5-16.75 0-30.8-4.33-42.15-12.45-11.9-8.12-21.08-20.03-27.03-35.2-5.94-14.61-9.19-32.48-9.19-52.5 0-23.28 4.33-44.4 12.44-63.35 8.1-18.4 19.45-35.18 35.13-49.8a370.94 370.94 0 01-12.97-44.4c-3.25-14.07-4.87-27.6-4.87-40.06 0-21.1 3.78-38.97 10.81-52.5 7.03-13.54 16.21-23.83 28.1-30.87 11.9-6.5 24.87-9.74 38.92-9.74 14.6 0 27.02 2.7 38.37 8.12a67.44 67.44 0 0125.95 24.9c5.94 10.83 9.19 24.36 9.19 40.06 0 21.12-5.4 40.6-15.68 57.39-10.8 17.32-24.32 33.02-40 47.64a756.55 756.55 0 0012.44 31.4c4.32 10.83 8.64 21.65 12.97 31.94 1.08-7.58 2.16-15.7 3.78-23.82a367.05 367.05 0 002.7-25.44l1.63-13 66.47 2.17-1.62 13c-2.7 22.73-7.02 43.3-12.97 62.25a392.95 392.95 0 01-22.16 52.51c8.65 15.7 16.76 30.32 24.32 43.31 7.03 13 13.52 23.82 18.92 32.48h-85.4zm-47.57-297.22c0 5.96.54 11.91 1.08 18.95a107.3 107.3 0 003.79 21.65 120.64 120.64 0 008.64-23.27c2.17-8.13 3.25-15.7 3.25-22.74 0-5.96-.54-10.83-1.62-14.62-1.63-3.25-3.79-4.87-6.49-4.87s-4.86 2.16-6.49 6.5c-1.62 4.33-2.16 10.28-2.16 18.4zm-5.4 237.12c5.4 0 10.8-2.17 16.21-6.5-5.4-10.28-10.8-21.65-16.75-34.1-6.49-11.91-11.9-24.36-17.84-36.82-1.62 6.5-2.16 12.46-2.7 17.87-.54 5.95-1.08 11.37-1.08 16.24 0 14.62 2.16 25.45 7.02 32.48 4.33 7.04 9.2 10.83 15.14 10.83zM2000.27 3902.23h91.88v378.96h-91.88zM2108.37 4281.2v-378.97h105.93l12.43 147.26c1.08 9.2 2.16 17.86 2.7 27.07.54 9.2 1.62 18.4 2.17 27.6h.54c.54-9.2 1.62-18.4 2.7-27.6.54-9.2 1.62-17.87 2.16-27.07l13.51-147.26h100.53v378.96h-77.29v-142.38c0-9.74 0-19.49.54-29.23.54-9.2 1.08-18.95 1.62-28.7h-.54c-1.08 9.2-2.16 18.95-3.24 27.62l-3.24 27.6-14.6 145.1h-52.42l-14.05-145.64-3.25-27.6c-1.62-9.2-2.7-17.87-3.78-27.07h-.54c.54 9.2 1.08 18.94 1.62 28.69.54 9.74.54 19.49.54 29.23v142.38h-74.04zM2475.35 4281.2l-6.48-102.33 1.08-9.2-1.08-14.62c-1.63-29.77-3.79-59.55-5.4-90.95a2891.38 2891.38 0 01-4.87-86.62h-1.08c-1.63 27.07-3.25 55.77-5.4 86.62-2.17 31.4-4.33 61.18-5.95 90.95l-.54 14.62.54 9.2-6.49 102.32h-80l39.46-378.96h122.7l39.99 378.96h-86.48zm-44.86-74.72v-73.08h51.35v73.08h-51.35zM2639.66 4286.6c-14.05 0-26.49-3.78-37.84-11.9-11.35-7.58-20-17.87-26.48-30.86-6.48-12.45-9.73-26.53-9.73-42.23V3982.9c0-15.7 3.79-30.32 10.81-43.31 7.03-12.45 17.84-22.74 32.43-30.86 14.6-8.12 32.43-11.9 53.5-11.9 21.09 0 38.92 3.78 52.44 11.36 13.5 8.12 23.78 18.4 30.8 30.86 6.49 13 9.73 27.07 9.73 42.77v36.27l-81.07 2.16v-34.64c0-5.42-1.08-9.75-2.7-12.46-1.62-2.7-4.87-3.79-9.2-3.79-4.86 0-7.56 1.63-9.18 4.34-2.16 2.7-2.7 7.03-2.7 12.45v211.13c0 5.96 1.08 9.74 3.24 12.45 1.62 2.7 4.87 4.33 8.65 4.33 4.86 0 8.65-1.62 10.8-4.33 1.63-2.7 2.71-7.04 2.71-13l35.67-1.07c0 28.69-5.94 50.88-18.37 66.58-12.44 16.25-30.27 24.37-53.51 24.37zm116.2-5.4h-60l-7.56-46.57-12.43-11.36v-86.08h-12.43v-70.38h92.42v214.38zM2774.78 3902.23h91.88v378.96h-91.88zM2882.87 4281.2v-378.97h77.83l35.68 176.5h.54a563.35 563.35 0 01-2.7-32.5c-.55-11.36-1.09-22.19-1.09-33.01v-110.99h75.67v378.96h-78.37l-35.13-173.78h-.54a679.45 679.45 0 012.7 33.03c.54 11.37 1.08 22.73 1.08 33.56v107.2h-75.67zM3193.11 4281.2l-6.49-102.33 1.09-9.2-1.09-14.62c-1.62-29.77-3.78-59.55-5.4-90.95a2891.38 2891.38 0 01-4.86-86.62h-1.09c-1.62 27.07-3.24 55.77-5.4 86.62-2.16 31.4-4.32 61.18-5.95 90.95l-.54 14.62.54 9.2-6.48 102.32h-80l39.46-378.96h122.7l39.99 378.96h-86.48zm-44.86-74.72v-73.08h51.35v73.08h-51.35zM3393.63 4281.2h-88.64v-303.17h-38.37v-75.8H3432v75.8h-38.37v303.16zM3444.97 3902.23h91.89v378.96h-91.89zM3648.74 4286.6c-21.62 0-39.46-3.78-54.05-11.9-14.6-7.58-25.4-17.87-32.43-30.86a87.61 87.61 0 01-10.81-42.23v-219.8c0-15.7 3.78-29.77 10.8-42.76 7.03-12.45 17.84-22.74 32.44-30.86 14.59-7.58 32.43-11.37 54.05-11.37 21.61 0 39.45 3.8 54.04 11.37 14.6 8.12 25.4 18.4 32.43 30.86a88.15 88.15 0 0110.81 42.77v219.8c0 15.7-3.78 29.77-10.8 42.22-7.03 13-17.84 23.28-31.9 30.86-14.59 8.12-32.42 11.9-54.58 11.9zm0-72.54c5.4 0 9.18-1.62 10.8-4.33 1.63-2.7 2.17-7.04 2.17-13V3986.7c0-5.96-.54-10.29-2.16-13-1.63-2.7-5.41-4.33-10.81-4.33-4.87 0-8.11 1.63-9.73 4.34-2.17 2.7-2.7 7.03-2.7 12.99v210.05c0 5.95.53 10.28 2.7 13 1.62 2.7 4.86 4.32 9.73 4.32zM3763.86 4281.2v-378.97h77.83l35.67 176.5h.54a563.35 563.35 0 01-2.7-32.5c-.54-11.36-1.08-22.19-1.08-33.01v-110.99h75.66v378.96h-78.37l-35.13-173.78h-.54a679.45 679.45 0 012.7 33.03c.54 11.37 1.09 22.73 1.09 33.56v107.2h-75.67z"/>
  </g>
  <g>
    <path fill="#23242f" d="M4022.87 1674.55h3834.51v412.18H4022.87z"/>
    <path fill="#fafbfc" fill-rule="nonzero" d="M4983.94 1978.08h-60.27a48.3 48.3 0 01-2.62-8.2 44.61 44.61 0 01-.98-9.51l.65-5.25v-74.81l-1.3-6.9v-21.65c0-4.92-.66-8.53-2.3-11.15-1.64-2.3-4.26-3.61-7.86-3.61-7.53 0-11.46 4.92-11.46 14.76v5.58l-57.33-1.64v-5.25c0-16.73 6.23-30.84 18.34-42 12.12-10.82 30.47-16.4 54.38-16.4 21.95 0 38.98 5.25 50.45 15.42 11.46 10.5 17.03 24.28 17.03 41.01v104.01c0 4.6.33 9.19.98 13.45.33 4.6 1.31 8.53 2.3 12.14zm-57-119.43l1.65 31.5-14.74 7.22c-5.57 2.62-9.5 5.9-12.12 9.51-2.95 3.61-4.26 8.2-4.26 13.79 0 5.24.98 9.18 2.62 12.13 1.64 2.96 3.93 4.27 6.88 4.27 2.29 0 4.91-.66 7.2-2.3a96.46 96.46 0 006.55-5.9l4.92 25.26a77.27 77.27 0 01-18.35 19.03c-7.86 5.58-17.36 8.53-28.17 8.53-13.1 0-23.25-4.6-30.79-13.45-7.53-8.86-11.13-20.34-11.13-34.45 0-11.81 2.62-21.98 7.53-30.19 4.91-8.2 12.12-15.09 21.62-20.67 9.5-5.57 20.96-10.82 34.4-15.42l26.2-8.86zM4997.05 1978.08v-181.44h60.92v21a69.35 69.35 0 0122.28-18.04c8.52-4.27 18.01-6.57 28.82-6.57 11.8 0 20.97 3.94 27.85 11.49 6.55 7.87 9.82 19.68 9.82 35.1v138.46h-61.25v-116.47c0-7.88-2.95-11.81-8.52-11.81-2.95 0-5.57.98-8.51 2.62-2.95 1.64-6.56 4.92-10.16 9.19v116.47h-61.25zM5346.23 1978.08h-60.27a48.3 48.3 0 01-2.62-8.2 44.61 44.61 0 01-.98-9.51l.65-5.25v-74.81l-1.3-6.9v-21.65c0-4.92-.66-8.53-2.3-11.15-1.64-2.3-4.26-3.61-7.86-3.61-7.54 0-11.47 4.92-11.47 14.76v5.58l-57.32-1.64v-5.25c0-16.73 6.22-30.84 18.34-42 12.12-10.82 30.46-16.4 54.38-16.4 21.94 0 38.98 5.25 50.44 15.42 11.47 10.5 17.04 24.28 17.04 41.01v104.01c0 4.6.32 9.19.98 13.45.33 4.6 1.3 8.53 2.3 12.14zm-57-119.43l1.64 31.5-14.74 7.22c-5.57 2.62-9.5 5.9-12.12 9.51-2.95 3.61-4.26 8.2-4.26 13.79 0 5.24.99 9.18 2.62 12.13 1.64 2.96 3.94 4.27 6.88 4.27 2.3 0 4.92-.66 7.21-2.3a96.46 96.46 0 006.55-5.9l4.91 25.26a77.27 77.27 0 01-18.34 19.03c-7.86 5.58-17.36 8.53-28.17 8.53-13.1 0-23.26-4.6-30.8-13.45-7.52-8.86-11.13-20.34-11.13-34.45 0-11.81 2.62-21.98 7.54-30.19 4.91-8.2 12.12-15.09 21.62-20.67 9.5-5.57 20.96-10.82 34.39-15.42l26.2-8.86zM5359.33 2029.6v-232.96h60.93v16.08a73.4 73.4 0 0120.64-14.44c7.2-3.6 15.72-5.25 25.55-5.25 12.77 0 23.25 4.27 31.12 12.8 7.53 8.86 11.46 22.97 11.46 42.65v73.17c0 17.72-5.24 32.15-15.07 43.3-10.15 11.5-24.9 17.07-43.56 17.07-7.87 0-14.74-.98-20.97-3.28-6.22-2.3-11.46-4.6-15.72-7.55s-7.2-5.25-9.5-6.89l12.77-34.12a29.43 29.43 0 007.87 3.94c2.94.98 5.9 1.64 9.17 1.64 4.91 0 8.51-1.64 10.8-4.92 1.97-2.96 2.96-7.22 2.96-12.8v-57.75c0-10.17-3.28-15.09-9.83-15.09-5.57 0-11.47 3.28-17.36 9.52v174.87h-61.26zM5523.12 1919.02v-61.68c0-11.48 2.62-22.3 8.19-32.15 5.24-9.85 13.43-17.72 24.56-23.95 10.81-6.24 24.9-9.2 41.93-9.2 17.36 0 31.45 2.96 42.26 8.87 10.8 6.23 19 14.1 24.56 23.95 5.24 9.84 7.87 20.67 7.87 32.48v61.68c0 11.49-2.63 21.99-7.87 31.5-5.56 9.52-13.75 17.4-24.56 23.3-10.81 5.9-24.9 8.86-42.26 8.86-17.03 0-31.12-2.96-41.93-8.86-11.13-5.9-19.32-13.78-24.56-23.63-5.57-9.51-8.2-20.01-8.2-31.17zm75 15.75c4.92 0 8.2-1.3 10.16-4.26 1.97-2.63 2.95-6.9 2.95-13.13V1858c0-6.24-.98-10.83-2.95-13.45-1.96-2.63-5.24-3.94-10.15-3.94-4.92 0-8.2 1.31-10.48 3.94-2.3 2.62-3.28 7.21-3.28 13.45v59.38c0 6.24.98 10.5 3.28 13.13 2.29 2.95 5.56 4.26 10.48 4.26zM5685.59 1919.35v-63.98a61.94 61.94 0 018.19-31.5c5.57-9.51 13.75-17.06 24.56-22.96 10.81-5.9 24.57-8.86 40.95-8.86 16.7 0 30.46 2.95 40.62 8.53 10.15 5.58 17.69 13.12 22.6 22.31a69.76 69.76 0 016.88 30.84v13.13l-57.33 1.64v-12.14c0-4.92-.98-8.86-2.62-11.49-1.96-2.62-5.24-3.93-9.5-3.93-4.9 0-8.18 1.64-10.15 4.26-1.96 2.95-2.95 7.22-2.95 12.8v59.06c0 5.57.99 9.51 2.95 12.46 1.64 3.28 5.24 4.6 10.16 4.6 4.9 0 8.18-1.32 9.82-4.27 1.64-2.62 2.3-6.23 2.3-11.15v-12.14l57.32 1.3V1921c0 10.83-2.3 21-6.88 30.52-4.59 9.51-12.12 17.06-22.27 22.64-10.16 5.57-23.92 8.53-40.62 8.53-16.7 0-30.47-2.96-41.28-8.86-10.8-5.9-19-13.78-24.56-23.3-5.57-9.51-8.2-19.68-8.2-31.17zM5984.33 1978.08h-60.28a48.3 48.3 0 01-2.62-8.2 44.61 44.61 0 01-.98-9.51l.66-5.25v-74.81l-1.31-6.9v-21.65c0-4.92-.66-8.53-2.3-11.15-1.63-2.3-4.25-3.61-7.86-3.61-7.53 0-11.46 4.92-11.46 14.76v5.58l-57.33-1.64v-5.25c0-16.73 6.23-30.84 18.35-42 12.12-10.82 30.46-16.4 54.37-16.4 21.95 0 38.98 5.25 50.45 15.42 11.46 10.5 17.03 24.28 17.03 41.01v104.01c0 4.6.33 9.19.98 13.45.33 4.6 1.31 8.53 2.3 12.14zm-57-119.43l1.64 31.5-14.74 7.22c-5.57 2.62-9.5 5.9-12.12 9.51-2.95 3.61-4.26 8.2-4.26 13.79 0 5.24.98 9.18 2.62 12.13 1.64 2.96 3.93 4.27 6.88 4.27 2.3 0 4.91-.66 7.2-2.3a96.46 96.46 0 006.56-5.9l4.91 25.26a77.27 77.27 0 01-18.34 19.03c-7.86 5.58-17.36 8.53-28.17 8.53-13.1 0-23.26-4.6-30.8-13.45-7.53-8.86-11.13-20.34-11.13-34.45 0-11.81 2.62-21.98 7.53-30.19 4.92-8.2 12.12-15.09 21.62-20.67 9.5-5.57 20.97-10.82 34.4-15.42l26.2-8.86zM5999.07 1738.57h62.23v239.51h-62.23zM6081.61 2029.6v-43.64h15.07c4.26 0 7.2-1.64 8.85-4.92 1.63-3.61 1.96-8.53.32-15.42l-38.65-168.98h67.48l7.53 61.36c.66 5.58 1.31 11.8 1.97 18.7.65 6.89 1.3 14.1 1.96 21 .66 7.22.99 14.1 1.31 20.67h.33c.33-6.56.98-13.45 1.64-20.67.33-6.9.98-14.11 1.64-21 .65-6.9 1.3-13.12 1.96-18.7l6.88-61.36h61.26l-38 174.88c-4.59 20.67-11.47 35.76-20.31 44.62-9.17 8.86-22.27 13.45-38.98 13.45h-42.26zM6227.7 2029.6v-232.96h60.93v16.08a73.4 73.4 0 0120.64-14.44c7.2-3.6 15.72-5.25 25.55-5.25 12.78 0 23.26 4.27 31.12 12.8 7.53 8.86 11.46 22.97 11.46 42.65v73.17c0 17.72-5.24 32.15-15.06 43.3-10.16 11.5-24.9 17.07-43.57 17.07-7.86 0-14.74-.98-20.96-3.28-6.23-2.3-11.47-4.6-15.73-7.55s-7.2-5.25-9.5-6.89l12.78-34.12a29.43 29.43 0 007.86 3.94c2.95.98 5.9 1.64 9.17 1.64 4.92 0 8.52-1.64 10.81-4.92 1.97-2.96 2.95-7.22 2.95-12.8v-57.75c0-10.17-3.28-15.09-9.83-15.09-5.57 0-11.46 3.28-17.36 9.52v174.87h-61.25zM6387.89 1922.96l54.7-2.62c.33 6.23 2.3 11.15 5.24 14.1 2.95 3.29 6.88 4.93 12.12 4.93 3.6 0 6.55-.99 8.52-2.96 1.96-1.64 2.95-4.26 2.95-7.21 0-3.61-1.64-6.9-4.92-9.52-3.6-2.3-7.86-4.6-13.1-6.89-5.57-1.97-11.14-3.94-17.36-6.23-15.4-5.58-26.86-13.13-34.4-22.64-7.53-9.52-11.13-20.67-11.13-34.12 0-18.7 5.9-32.81 18.01-42.99 11.8-9.84 28.17-14.76 49.47-14.76 20.63 0 37.01 5.25 49.13 15.75 12.12 10.83 18.67 25.26 20.3 43.64l-54.7 2.62c-.32-5.9-1.96-10.5-4.25-13.78a12.88 12.88 0 00-10.48-4.92c-3.6 0-6.23.98-7.87 2.62-1.96 1.64-2.94 4.27-2.94 7.22 0 4.92 3.27 8.86 9.5 11.49a312.72 312.72 0 0022.6 8.53c17.03 6.23 29.48 14.1 37.67 23.95 8.19 9.84 12.12 21.65 12.12 35.1 0 18.7-5.9 32.81-18.02 42.99-12.45 10.17-28.82 15.42-50.12 15.42-22.6 0-39.96-5.25-52.4-15.75-12.45-10.5-19.33-25.27-20.64-43.97zM6538.57 1919.35v-63.98c0-11.15 2.62-21.65 8.19-31.17 5.24-9.51 13.43-17.39 24.24-23.3 10.8-5.9 24.23-8.85 40.29-8.85 16.37 0 29.8 2.95 40.61 8.86 10.81 5.9 18.67 13.45 24.24 22.97a65.1 65.1 0 017.86 31.5v46.91h-91.39v-36.75h33.09v-11.8c0-5.59-.98-9.52-2.62-12.48-1.97-2.95-5.57-4.26-10.48-4.26-4.92 0-8.2 1.31-10.16 4.26-2.3 2.96-3.27 7.22-3.27 12.47V1921c0 5.25.98 9.52 3.27 12.47 1.97 2.95 5.24 4.6 10.16 4.6 4.9 0 8.51-1.32 10.48-3.61 1.64-2.3 2.62-5.25 2.62-9.52v-7.55l58.3 1.32v6.89a52 52 0 01-7.86 27.89c-5.24 8.85-13.1 15.74-23.9 21-10.82 5.57-24.25 8.2-40.3 8.2-16.38 0-29.8-2.96-40.62-8.86-10.8-5.9-19-13.78-24.56-23.3-5.57-9.51-8.2-20.01-8.2-31.17zM6741 1978.08v-239.51h61.26v74.15c6.22-5.9 12.77-10.83 19.98-14.44 7.2-3.6 15.72-5.25 25.87-5.25 12.78 0 23.26 4.27 31.12 12.8 7.54 8.86 11.47 22.97 11.47 42.65v73.17c0 17.72-5.24 32.15-15.07 43.3-10.15 11.5-24.9 17.07-43.57 17.07-11.79 0-21.62-1.97-29.15-6.23-7.86-4.27-13.43-7.88-17.03-11.49l13.1-34.45a27.37 27.37 0 007.53 3.94c2.95.98 5.9 1.64 8.85 1.64 4.91 0 8.51-1.64 10.8-4.92 2.3-2.95 3.28-7.22 3.28-12.8v-57.74c0-10.17-3.27-15.1-9.82-15.1-5.57 0-11.47 3.28-17.36 9.52v87.93l-9.5 15.42-1.97 20.34H6741zM6907.73 2029.6v-43.64h15.07c4.26 0 7.2-1.64 8.84-4.92 1.64-3.61 1.97-8.53.33-15.42l-38.65-168.98h67.48l7.53 61.36c.66 5.58 1.31 11.8 1.97 18.7.65 6.89 1.3 14.1 1.96 21 .66 7.22.98 14.1 1.31 20.67h.33c.33-6.56.98-13.45 1.64-20.67.32-6.9.98-14.11 1.64-21 .65-6.9 1.3-13.12 1.96-18.7l6.88-61.36h61.25l-38 174.88c-4.58 20.67-11.46 35.76-20.3 44.62-9.17 8.86-22.28 13.45-38.98 13.45h-42.26z"/>
  </g>
</svg>